<?xml version="1.0" encoding="utf-8"?>
<!-- Generator: Adobe Illustrator 16.0.0, SVG Export Plug-In . SVG Version: 6.00 Build 0)  -->
<!DOCTYPE svg PUBLIC "-//W3C//DTD SVG 1.1//EN" "http://www.w3.org/Graphics/SVG/1.1/DTD/svg11.dtd">
<svg version="1.1" xmlns="http://www.w3.org/2000/svg" xmlns:xlink="http://www.w3.org/1999/xlink" x="0px" y="0px" width="36px"
	 height="63px" viewBox="0 0 36 63" enable-background="new 0 0 36 63" xml:space="preserve">
<g id="Layer_1" display="none">
	
		<image display="inline" overflow="visible" enable-background="new    " width="14" height="4" xlink:href="1F9538632C7B977A.png"  transform="matrix(1 0 0 1 11.0005 59)">
	</image>
	<path display="inline" fill="#1970C8" d="M36,17.889C36,7.95,27.939,0,18,0C8.06,0,0,7.894,0,17.833
		c0,2.658,0.591,5.277,1.625,7.277H1.578L18,61.027l16.422-35.917h-0.047C35.409,23.111,36,20.547,36,17.889z"/>
	<circle display="inline" fill="#FFFFFF" cx="18" cy="18.111" r="13.08"/>
	<g display="inline">
		<circle fill="#85C900" cx="18" cy="18.112" r="10"/>
		<polyline fill="none" stroke="#FFFFFF" stroke-width="2" stroke-miterlimit="10" points="23,14.612 16,21.612 13,18.612 		"/>
	</g>
</g>
<g id="wazzaround_1_">
	<g id="Gruppe_2_Kopie_9_1_">
		<g id="wazzaround">
		</g>
		<g id="Ebene_2_Kopie_xA0_Bild_1_">
		</g>
		<g id="Ebene_2_Kopie_2_xA0_Bild_1_">
		</g>
		<g id="Ebene_2_Kopie_4_xA0_Bild_3_">
		</g>
		<g id="Ebene_2_Kopie_4_xA0_Bild_1_">
		</g>
		<g id="find_your_activity">
		</g>
		<circle fill="none" stroke="#73C800" stroke-width="3" stroke-miterlimit="10" cx="8.991" cy="54.149" r="7.286"/>
		<g id="Abgerundetes_Rechteck_1_14_">
			<g>
				<path fill="#FFFFFF" d="M27.86,35.715c-1.12-1.121-1.681-1.992-3.425-0.748L7.745,51.348c-1.121,1.121-1.121,2.988,0,4.109
					c1.121,1.123,2.989,1.123,4.111,0l16.692-16.752C29.419,37.457,28.982,36.836,27.86,35.715z"/>
			</g>
		</g>
		<g id="Abgerundetes_Rechteck_1_12_">
			<g>
				<path fill="#73C800" d="M21.136,42.318c-0.747-0.688-1.059-1.311-2.18-0.502L8.306,52.221c-0.747,0.746-0.747,1.867,0,2.615
					c0.747,0.746,1.868,0.746,2.615,0l10.651-10.65C22.131,43.438,21.883,43.064,21.136,42.318z"/>
			</g>
		</g>
		<g>
			<g>
				<g>
					<path fill="#FFFFFF" d="M33.777,27.931H19.578c-4.36,0-7.846,3.549-7.846,7.909c0,4.359,3.549,7.846,7.846,7.846
						c0,4.359,3.55,7.85,7.848,7.85c4.297,0,7.848-3.551,7.848-7.85V29.487C35.335,28.615,34.649,27.931,33.777,27.931z"/>
				</g>
			</g>
		</g>
		<g>
			<g>
				<g>
					<path fill="#73C800" d="M32.719,30.545v13.265c0,2.803-2.303,5.045-5.106,5.045c-2.803,0-5.106-2.305-5.106-5.107v-3.113
						h-3.113c-2.804,0-5.108-2.303-5.108-5.105c0-2.805,2.304-5.108,5.108-5.108h13.326 M34.214,27.431h-14.76
						c-4.547,0-8.222,3.675-8.222,8.221c0,4.547,3.675,8.221,8.222,8.221c0,4.547,3.674,8.221,8.22,8.221
						c4.547,0,8.222-3.674,8.222-8.158V29.051C35.833,28.179,35.087,27.431,34.214,27.431L34.214,27.431z"/>
				</g>
			</g>
		</g>
	</g>
</g>
</svg>
