<svg class="icon-loading" xmlns="http://www.w3.org/2000/svg" viewBox="0 0 32 32" width="32" height="32" fill="#fff"><path transform="translate(-8)" d="M4 12a4 4 0 0 0 0 8 4 4 0 0 0 0-8"><animateTransform attributeName="transform" values="-8 0; 2 0; 2 0;" dur="0.8s" repeatCount="indefinite" begin="0" keySplines="0.2 0.2 0.4 0.8;0.2 0.6 0.4 0.8" calcMode="spline"/></path><path transform="translate(2)" d="M4 12a4 4 0 0 0 0 8 4 4 0 0 0 0-8"><animateTransform attributeName="transform" values="2 0; 12 0; 12 0;" dur="0.8s" repeatCount="indefinite" begin="0" keySplines="0.2 0.2 0.4 0.8;0.2 0.6 0.4 0.8" calcMode="spline"/></path><path transform="translate(12)" d="M4 12a4 4 0 0 0 0 8 4 4 0 0 0 0-8"><animateTransform attributeName="transform" values="12 0; 22 0; 22 0;" dur="0.8s" repeatCount="indefinite" begin="0" keySplines="0.2 0.2 0.4 0.8;0.2 0.6 0.4 0.8" calcMode="spline"/></path><path transform="translate(24)" d="M4 12a4 4 0 0 0 0 8 4 4 0 0 0 0-8"><animateTransform attributeName="transform" values="22 0; 32 0; 32 0;" dur="0.8s" repeatCount="indefinite" begin="0" keySplines="0.2 0.2 0.4 0.8;0.2 0.6 0.4 0.8" calcMode="spline"/></path></svg>