<?xml version="1.0" encoding="utf-8"?>
<!-- Generator: Adobe Illustrator 16.0.0, SVG Export Plug-In . SVG Version: 6.00 Build 0)  -->
<!DOCTYPE svg PUBLIC "-//W3C//DTD SVG 1.1 Tiny//EN" "http://www.w3.org/Graphics/SVG/1.1/DTD/svg11-tiny.dtd">
<svg version="1.1" baseProfile="tiny" id="Layer_1" xmlns="http://www.w3.org/2000/svg" xmlns:xlink="http://www.w3.org/1999/xlink"
	 x="0px" y="0px" width="90px" height="90px" viewBox="0 0 90 90" xml:space="preserve">
<g>
	<g>
		<path fill="#D9D9D9" d="M53.771,46.649c0,1.63-1.322,2.954-2.953,2.954c-0.721,0-1.373-0.269-1.886-0.698l-3.352,3.351
			c1.373,1.283,3.211,2.074,5.237,2.074c4.241,0,7.681-3.438,7.681-7.68c0-2.027-0.791-3.865-2.074-5.237l-3.352,3.352
			C53.503,45.276,53.771,45.928,53.771,46.649z"/>
		<path fill="#D9D9D9" d="M69.447,28.549l-9.6,9.52c2.138,2.229,3.418,5.247,3.418,8.58c0,6.852-5.574,12.406-12.427,12.406
			c-3.333,0-6.361-1.802-8.59-3.938L32.874,64h35.077C70.562,64,73,62.848,73,60.236V33.061C73,30.917,71.402,29.128,69.447,28.549z
			"/>
		<path fill="#D9D9D9" d="M17.817,63.951l21.265-21.274c1.235-3.653,4.115-6.538,7.769-7.773L58.47,23.282l-0.998-1.12
			C56.774,21.465,55.863,21,54.954,21h-8.26c-0.909,0-1.832-0.202-2.517,0.495L38.151,27H34v-1.324C34,24.53,32.764,23,31.618,23
			h-7.681C22.791,23,22,24.53,22,25.676V27h-1.312C18.077,27,16,30.45,16,33.061v27.176C16,61.753,16.708,63.087,17.817,63.951z
			 M24.233,34h7.09c1.3,0,2.363,1.2,2.363,2.5c0,1.299-1.063,2.5-2.363,2.5h-7.09c-1.3,0-2.363-1.201-2.363-2.5
			C21.87,35.2,22.933,34,24.233,34z"/>
	</g>
	<path fill="#D9D9D9" d="M45,0C20.187,0,0,20.187,0,45c0,24.813,20.187,45,45,45c24.813,0,45-20.187,45-45C90,20.187,69.813,0,45,0z
		 M45,7.584c8.899,0,17.08,3.128,23.509,8.337L15.921,68.509C10.712,62.08,7.584,53.899,7.584,45
		C7.584,24.369,24.369,7.584,45,7.584z M45,82.416c-9.005,0-17.277-3.199-23.741-8.519l52.639-52.639
		c5.319,6.464,8.519,14.736,8.519,23.741C82.416,65.631,65.631,82.416,45,82.416z"/>
</g>
</svg>
