<?xml version="1.0" encoding="utf-8"?>
<!-- Generator: Adobe Illustrator 16.0.0, SVG Export Plug-In . SVG Version: 6.00 Build 0)  -->
<!DOCTYPE svg PUBLIC "-//W3C//DTD SVG 1.1//EN" "http://www.w3.org/Graphics/SVG/1.1/DTD/svg11.dtd">
<svg version="1.1" xmlns="http://www.w3.org/2000/svg" xmlns:xlink="http://www.w3.org/1999/xlink" x="0px" y="0px" width="165px"
	 height="690px" viewBox="0 0 165 690" enable-background="new 0 0 165 690" xml:space="preserve">
<g id="BACKGROUND" display="none">
	<rect display="inline" fill="#808080" width="165" height="1350"/>
</g>
<g id="ELEMENTS">
	<polygon fill="#FFFFFF" points="9.899,549.358 8.484,547.942 4.949,551.479 1.414,547.942 0,549.358 3.535,552.894 0,556.429 
		1.414,557.843 4.949,554.308 8.484,557.843 9.899,556.429 6.364,552.894 	"/>
	<polygon fill="#FFFFFF" points="7,599.373 6.07,598.442 3.749,600.764 1.428,598.442 0.5,599.373 2.821,601.693 0.5,604.016 
		1.428,604.942 3.749,602.621 6.07,604.942 7,604.016 4.679,601.693 	"/>
	<g>
		<polygon fill="#FFFFFF" points="29.469,558.942 25,554.474 26.475,552.999 28.96,555.485 33.164,547.68 35,548.669 		"/>
	</g>
	<g>
		<g>
			<path fill="none" stroke="#FFFFFF" stroke-miterlimit="10" d="M60.5,659.444v1.327c0,0.646-0.528,1.173-1.172,1.173h-7.655
				c-0.645,0-1.172-0.527-1.172-1.173v-1.327"/>
		</g>
		<polygon fill="#FFFFFF" points="56.983,654.444 56.983,651.444 54.017,651.444 54.017,654.444 51.5,654.444 55.499,658.444 
			59.5,654.444 		"/>
	</g>
	<g>
		<g>
			<path fill="none" stroke="#FFFFFF" stroke-miterlimit="10" d="M35.5,659.444v1.327c0,0.646-0.528,1.173-1.172,1.173h-7.655
				c-0.645,0-1.172-0.527-1.172-1.173v-1.327"/>
		</g>
		<polygon fill="#FFFFFF" points="31.983,655.444 31.983,658.444 29.017,658.444 29.017,655.444 26.5,655.444 30.499,651.444 
			34.5,655.444 		"/>
	</g>
	<g>
		<path fill="#FFFFFF" d="M3.264,658.429c-0.344-0.371-0.516-0.889-0.516-1.555c0-0.773,0.263-1.496,0.788-2.17
			c0.525-0.675,1.169-1.012,1.933-1.012c0.448,0,0.796,0.123,1.044,0.371c0.188,0.191,0.314,0.412,0.378,0.659l0.23-0.807h1.21
			l-0.819,2.778c-0.064,0.227-0.11,0.395-0.138,0.502c-0.028,0.109-0.042,0.205-0.042,0.285c0,0.129,0.043,0.25,0.128,0.362
			c0.085,0.113,0.222,0.169,0.41,0.169c0.367,0,0.735-0.24,1.104-0.72s0.554-1.116,0.554-1.911c0-1.174-0.504-2.016-1.511-2.528
			c-0.632-0.324-1.342-0.487-2.132-0.487c-1.452,0-2.616,0.444-3.496,1.332c-0.794,0.803-1.191,1.765-1.191,2.887
			c0,1.247,0.465,2.234,1.396,2.965c0.824,0.645,1.829,0.967,3.016,0.967c0.811,0,1.568-0.149,2.272-0.448
			c0.384-0.158,0.781-0.382,1.191-0.673l0.153-0.107l0.467,0.717c-0.606,0.469-1.262,0.826-1.968,1.072
			c-0.707,0.244-1.44,0.367-2.199,0.367c-1.771,0-3.144-0.55-4.117-1.651c-0.807-0.913-1.21-1.995-1.21-3.245
			c0-1.4,0.503-2.587,1.511-3.561c1.059-1.028,2.414-1.543,4.065-1.543c1.344,0,2.458,0.353,3.342,1.057
			c0.93,0.742,1.396,1.729,1.396,2.958c0,0.969-0.294,1.8-0.883,2.493c-0.589,0.694-1.261,1.041-2.017,1.041
			c-0.393,0-0.695-0.111-0.906-0.334c-0.211-0.221-0.317-0.449-0.317-0.684c0-0.03,0.001-0.063,0.003-0.1
			c0.002-0.037,0.005-0.076,0.009-0.119c-0.162,0.308-0.343,0.553-0.544,0.736c-0.362,0.329-0.798,0.493-1.306,0.493
			C4.037,658.986,3.607,658.801,3.264,658.429z M6.32,654.8c-0.136-0.154-0.32-0.23-0.55-0.23c-0.444,0-0.826,0.275-1.146,0.828
			c-0.32,0.554-0.48,1.088-0.48,1.604c0,0.312,0.072,0.563,0.215,0.755c0.143,0.192,0.344,0.289,0.604,0.289
			c0.457,0,0.832-0.348,1.124-1.041c0.293-0.693,0.439-1.238,0.439-1.635C6.525,655.144,6.457,654.953,6.32,654.8z"/>
	</g>
	<path fill="#FFFFFF" d="M76.195,662.105c-0.649,0.051-1.141-0.355-1.191-0.872c-0.06-0.626,0.555-1.396,1.354-1.46
		c0.666-0.055,1.154,0.305,1.207,0.855C77.637,661.374,76.928,662.047,76.195,662.105z M80.57,652.371
		c-0.921,1.425-2.503,4.377-2.835,5.816c0.029,0.475-0.144,0.765-0.911,0.826c-0.451,0.035-0.921,0.027-0.965-0.43
		c-0.072-0.764,1.393-4.229,2.143-5.686c-0.096-0.99,0.355-1.379,1.155-1.443c0.416-0.034,1.477-0.011,1.524,0.491
		C80.696,652.1,80.658,652.24,80.57,652.371z"/>
	<g>
		<rect x="100" y="551.942" fill="#FFFFFF" width="16" height="3"/>
		<rect x="100" y="546.942" fill="#FFFFFF" width="16" height="3"/>
		<rect x="100" y="556.942" fill="#FFFFFF" width="16" height="3"/>
	</g>
	<g>
		<rect x="100" y="576.942" fill="#259DB5" width="16" height="3"/>
		<rect x="100" y="571.942" fill="#259DB5" width="16" height="3"/>
		<rect x="100" y="581.942" fill="#259DB5" width="16" height="3"/>
	</g>
	<path fill-rule="evenodd" clip-rule="evenodd" fill="#FFFFFF" d="M150,560.775c0,0.645,0.537,1.167,1.2,1.167h9.6
		c0.663,0,1.2-0.522,1.2-1.167v-5.666c0-0.645-0.537-1.167-1.2-1.167h-7.2v-2.208c0-1.289,1.074-2.334,2.4-2.334
		s2.4,0.379,2.4,1.667v0.146c0,0.402,0.336,0.729,0.75,0.729s0.75-0.327,0.75-0.729v-0.146c0-2.094-1.746-3.125-3.9-3.125
		c-2.154,0-3.9,1.698-3.9,3.792v2.208h-0.9c-0.663,0-1.2,0.522-1.2,1.167V560.775z M154.8,556.984c0-0.645,0.537-1.167,1.2-1.167
		s1.2,0.522,1.2,1.167c0,0.411-0.219,0.773-0.549,0.98c0,0,0.118,0.688,0.249,1.498c0,0.242-0.201,0.438-0.45,0.438h-0.9
		c-0.249,0-0.45-0.195-0.45-0.438l0.249-1.498C155.019,557.758,154.8,557.396,154.8,556.984z"/>
	<path fill-rule="evenodd" clip-rule="evenodd" fill="#FFFFFF" d="M127.1,551.733v2.209h-0.9c-0.661,0-1.199,0.521-1.199,1.166
		v5.668c0,0.644,0.538,1.166,1.199,1.166h9.602c0.663,0,1.199-0.522,1.199-1.166v-5.668c0-0.646-0.536-1.166-1.199-1.166h-0.9
		v-2.209c0-2.093-1.747-3.791-3.899-3.791C128.846,547.942,127.1,549.641,127.1,551.733z M128.6,553.942v-2.209
		c0-1.288,1.073-2.332,2.401-2.332c1.326,0,2.399,1.044,2.399,2.332v2.209H128.6z M129.8,556.983c0-0.644,0.538-1.166,1.201-1.166
		c0.662,0,1.199,0.522,1.199,1.166c0,0.412-0.219,0.772-0.549,0.981c0,0,0.117,0.688,0.25,1.499c0,0.241-0.202,0.438-0.45,0.438
		h-0.9c-0.25,0-0.45-0.196-0.45-0.438l0.248-1.499C130.02,557.756,129.8,557.396,129.8,556.983z"/>
	<path fill-rule="evenodd" clip-rule="evenodd" fill="#959C9E" d="M127.1,576.733v2.209h-0.9c-0.661,0-1.199,0.521-1.199,1.166
		v5.668c0,0.644,0.538,1.166,1.199,1.166h9.602c0.663,0,1.199-0.522,1.199-1.166v-5.668c0-0.646-0.536-1.166-1.199-1.166h-0.9
		v-2.209c0-2.093-1.747-3.791-3.899-3.791C128.846,572.942,127.1,574.641,127.1,576.733z M128.6,578.942v-2.209
		c0-1.288,1.073-2.332,2.401-2.332c1.326,0,2.399,1.044,2.399,2.332v2.209H128.6z M129.8,581.983c0-0.644,0.538-1.166,1.201-1.166
		c0.662,0,1.199,0.522,1.199,1.166c0,0.412-0.219,0.772-0.549,0.981c0,0,0.117,0.688,0.25,1.499c0,0.241-0.202,0.438-0.45,0.438
		h-0.9c-0.25,0-0.45-0.196-0.45-0.438l0.248-1.499C130.02,582.756,129.8,582.396,129.8,581.983z"/>
	<g>
		<path fill="#FFFFFF" d="M56.357,553.281c0,0.295-0.181,0.928-0.362,1.448c-0.43,1.403-0.995,2.987-1.448,4.321
			c-0.181,0.453-0.294,0.837-0.294,1.041c0,0.181,0.068,0.361,0.271,0.361c0.34,0,0.996-0.769,1.38-1.425
			c0.317-0.497,0.498-0.702,0.701-0.702c0.227,0,0.317,0.182,0.317,0.363c0,0.407-0.475,1.176-0.882,1.719
			c-0.837,1.086-2.511,2.534-4.095,2.534c-1.153,0-1.38-0.679-1.38-1.403c0-0.43,0.204-1.152,0.43-1.832
			c0.453-1.471,1.063-3.145,1.471-4.344c0.09-0.271,0.204-0.566,0.204-0.656c0-0.158-0.068-0.295-0.227-0.295
			c-0.362,0-0.928,0.611-1.177,0.906c-0.475,0.52-0.747,0.814-0.95,0.814c-0.204,0-0.317-0.204-0.317-0.362
			c0-0.362,0.656-1.222,1.199-1.742c0.859-0.77,2.33-1.765,3.846-1.765c0.566,0,1.312,0.203,1.312,0.995V553.281z M57.398,549.277
			c0,1.018-0.95,1.9-2.036,1.9c-0.973,0-1.448-0.634-1.448-1.289c0-1.019,0.905-1.946,1.991-1.946c0.905,0,1.493,0.565,1.493,1.312
			V549.277z"/>
	</g>
	<g>
		<path fill="#259DB5" d="M56.357,578.281c0,0.295-0.181,0.928-0.362,1.448c-0.43,1.403-0.995,2.987-1.448,4.321
			c-0.181,0.453-0.294,0.837-0.294,1.041c0,0.181,0.068,0.361,0.271,0.361c0.34,0,0.996-0.769,1.38-1.425
			c0.317-0.497,0.498-0.702,0.701-0.702c0.227,0,0.317,0.182,0.317,0.363c0,0.407-0.475,1.176-0.882,1.719
			c-0.837,1.086-2.511,2.534-4.095,2.534c-1.153,0-1.38-0.679-1.38-1.403c0-0.43,0.204-1.152,0.43-1.832
			c0.453-1.471,1.063-3.145,1.471-4.344c0.09-0.271,0.204-0.566,0.204-0.656c0-0.158-0.068-0.295-0.227-0.295
			c-0.362,0-0.928,0.611-1.177,0.906c-0.475,0.52-0.747,0.814-0.95,0.814c-0.204,0-0.317-0.204-0.317-0.362
			c0-0.362,0.656-1.222,1.199-1.742c0.859-0.77,2.33-1.765,3.846-1.765c0.566,0,1.312,0.203,1.312,0.995V578.281z M57.398,574.277
			c0,1.018-0.95,1.9-2.036,1.9c-0.973,0-1.448-0.634-1.448-1.289c0-1.019,0.905-1.946,1.991-1.946c0.905,0,1.493,0.565,1.493,1.312
			V574.277z"/>
	</g>
	<rect x="26" y="600.942" fill="#FFFFFF" width="7" height="2"/>
	<rect x="25" y="600.942" fill="#FFFFFF" width="8" height="2"/>
	<rect x="28" y="597.942" fill="#FFFFFF" width="2" height="8"/>
	<g>
		<rect x="75" y="551.942" fill="#FFFFFF" width="10" height="2"/>
		<rect x="79" y="547.942" fill="#FFFFFF" width="2" height="10"/>
	</g>
	<path fill="#DFE1E2" d="M156.17,521.582l-8.156-8.764c1.203-2.105,1.445-4.614,0.709-6.887c-0.19-0.594-0.447-1.172-0.769-1.717
		c-0.32-0.545-0.709-1.062-1.168-1.543l-0.014-0.019l-0.004-0.001l-0.02-0.021c-1.626-1.698-3.793-2.579-5.978-2.63
		c-2.187-0.052-4.392,0.727-6.102,2.35l-0.016,0.014l-0.003,0.003l-0.016,0.02c-1.699,1.63-2.58,3.793-2.634,5.978
		c-0.051,2.188,0.729,4.392,2.352,6.102l0.013,0.018c2.35,2.46,5.807,3.218,8.841,2.238c0.489-0.156,0.959-0.371,1.417-0.614
		l8.149,8.759l0.015,0.014c0.327,0.349,0.861,0.363,1.197,0.029l2.155-2.098C156.474,522.48,156.492,521.93,156.17,521.582z
		 M145.178,513.398l-0.017,0.014c-0.371,0.354-0.774,0.658-1.205,0.908c-0.427,0.254-0.872,0.453-1.327,0.6
		c-2.365,0.766-5.061,0.172-6.89-1.744l-0.013-0.016c-1.263-1.331-1.874-3.049-1.828-4.752c0.038-1.699,0.726-3.383,2.048-4.655
		l0.017-0.017l0.012-0.014c1.335-1.265,3.052-1.868,4.753-1.828c1.699,0.039,3.389,0.728,4.658,2.051l0.015,0.014v0.002l0.014,0.016
		c0.351,0.37,0.654,0.777,0.907,1.205c0.254,0.426,0.456,0.874,0.6,1.326C147.684,508.875,147.096,511.57,145.178,513.398z"/>
	<path fill-rule="evenodd" clip-rule="evenodd" fill="#FFFFFF" d="M102.025,654.288v2.156h-1.125c-0.496,0-0.899,0.391-0.899,0.875
		v4.25c0,0.482,0.403,0.875,0.899,0.875h8.201c0.497,0,0.899-0.393,0.899-0.875v-4.25c0-0.484-0.402-0.875-0.899-0.875h-1.125
		v-2.156c0-1.57-1.36-2.844-2.974-2.844C103.385,651.444,102.025,652.718,102.025,654.288z M103.65,656.444v-1.856
		c0-0.967,0.354-1.6,1.351-1.6c0.994,0,1.398,0.633,1.398,1.6v1.856H103.65z M103.824,658.587c0-0.63,0.527-1.143,1.177-1.143
		c0.648,0,1.175,0.513,1.175,1.143c0,0.403-0.214,0.758-0.538,0.96c0,0,0.115,0.673,0.245,1.469c0,0.237-0.198,0.429-0.44,0.429
		h-0.882c-0.245,0-0.441-0.191-0.441-0.429l0.243-1.469C104.039,659.345,103.824,658.99,103.824,658.587z"/>
	<rect x="127" y="632.942" fill-rule="evenodd" clip-rule="evenodd" fill="#E1550F" width="10" height="2"/>
	<circle fill-rule="evenodd" clip-rule="evenodd" fill="#E1550F" cx="127" cy="625.442" r="1.5"/>
	<circle fill-rule="evenodd" clip-rule="evenodd" fill="#E1550F" cx="137" cy="625.442" r="1.5"/>
	<circle fill-rule="evenodd" clip-rule="evenodd" fill="#E1550F" cx="132" cy="624.442" r="1.5"/>
	<polygon fill-rule="evenodd" clip-rule="evenodd" fill="#E1550F" points="130,632.942 127,632.942 127,626.942 	"/>
	<polygon fill-rule="evenodd" clip-rule="evenodd" fill="#E1550F" points="134,632.942 137,632.942 137,626.942 	"/>
	<polygon fill-rule="evenodd" clip-rule="evenodd" fill="#E1550F" points="132,625.942 130,632.942 132,632.942 134,632.942 	"/>
	<rect x="152" y="632.942" fill-rule="evenodd" clip-rule="evenodd" fill="#FFFFFF" width="10" height="2"/>
	<circle fill-rule="evenodd" clip-rule="evenodd" fill="#FFFFFF" cx="152" cy="625.442" r="1.5"/>
	<circle fill-rule="evenodd" clip-rule="evenodd" fill="#FFFFFF" cx="162" cy="625.442" r="1.5"/>
	<circle fill-rule="evenodd" clip-rule="evenodd" fill="#FFFFFF" cx="157" cy="624.442" r="1.5"/>
	<polygon fill-rule="evenodd" clip-rule="evenodd" fill="#FFFFFF" points="155,632.942 152,632.942 152,626.942 	"/>
	<polygon fill-rule="evenodd" clip-rule="evenodd" fill="#FFFFFF" points="159,632.942 162,632.942 162,626.942 	"/>
	<polygon fill-rule="evenodd" clip-rule="evenodd" fill="#FFFFFF" points="157,625.942 155,632.942 157,632.942 159,632.942 	"/>
	<g>
		<circle fill="none" stroke="#E6F1C5" stroke-width="2" stroke-miterlimit="10" cx="12" cy="87" r="9"/>
		<g>
			<path fill="#E6F1C5" d="M12,85.375c0.896,0,1.625,0.729,1.625,1.625S12.896,88.625,12,88.625S10.375,87.896,10.375,87
				S11.104,85.375,12,85.375 M12,84.375c-1.45,0-2.625,1.175-2.625,2.625S10.55,89.625,12,89.625S14.625,88.45,14.625,87
				S13.45,84.375,12,84.375L12,84.375z"/>
		</g>
		<line fill="none" stroke="#E6F1C5" stroke-width="2" stroke-miterlimit="10" x1="12" y1="75" x2="12" y2="82.5"/>
		<line fill="none" stroke="#E6F1C5" stroke-width="2" stroke-miterlimit="10" x1="12" y1="91.5" x2="12" y2="99"/>
		<line fill="none" stroke="#E6F1C5" stroke-width="2" stroke-miterlimit="10" x1="24" y1="87" x2="16.5" y2="87"/>
		<line fill="none" stroke="#E6F1C5" stroke-width="2" stroke-miterlimit="10" x1="7.5" y1="87" x2="0" y2="87"/>
	</g>
	<polyline fill="none" stroke="#FFFFFF" stroke-width="2" stroke-miterlimit="10" points="1,53 11,63 1,73 	"/>
	<polyline fill="none" stroke="#666666" stroke-width="2" stroke-miterlimit="10" points="26,63 31,68 26,73 	"/>
	<polyline fill="none" stroke="#FFFFFF" stroke-width="2" stroke-miterlimit="10" points="26,51 1,26 26,1 	"/>
	<polyline fill="none" stroke="#FFFFFF" stroke-width="2" stroke-miterlimit="10" points="60,0.5 53,7.5 50,4.5 	"/>
</g>
<g id="GRID" display="none">
	<line display="inline" fill="none" stroke="#00FFFF" x1="-80" y1="-0.5" x2="718" y2="-0.5"/>
	<text transform="matrix(1 0 0 1 -86.104 1)" display="inline" fill="#00FFFF" font-family="'Silkscreen'" font-size="8">0</text>
	<text transform="matrix(1 0 0 1 -86.3281 -16)" display="inline" fill="#00FFFF" font-family="'Silkscreen'" font-size="8">Y</text>
	<text transform="matrix(1 0 0 1 -2 -83.6201)" display="inline" fill="#00FFFF" font-family="'Silkscreen'" font-size="8">0</text>
	<text transform="matrix(1 0 0 1 -22 -83.6201)" display="inline" fill="#00FFFF" font-family="'Silkscreen'" font-size="8">X</text>
	<line display="inline" fill="none" stroke="#A6FFFF" x1="-80" y1="24.5" x2="718" y2="24.5"/>
	<text transform="matrix(1 0 0 1 -90.208 26)" display="inline" fill="#A6FFFF" font-family="'Silkscreen'" font-size="8">25</text>
	<line display="inline" fill="none" stroke="#A6FFFF" x1="-80" y1="49.5" x2="718" y2="49.5"/>
	<text transform="matrix(1 0 0 1 -90.208 51)" display="inline" fill="#A6FFFF" font-family="'Silkscreen'" font-size="8">50</text>
	<line display="inline" fill="none" stroke="#A6FFFF" x1="-80" y1="74.5" x2="718" y2="74.5"/>
	<text transform="matrix(1 0 0 1 -90.208 76)" display="inline" fill="#A6FFFF" font-family="'Silkscreen'" font-size="8">75</text>
	<line display="inline" fill="none" stroke="#00FFFF" x1="-80" y1="99.5" x2="718" y2="99.5"/>
	<text transform="matrix(1 0 0 1 -94.3115 101)" display="inline" fill="#00FFFF" font-family="'Silkscreen'" font-size="8">100</text>
	<line display="inline" fill="none" stroke="#A6FFFF" x1="-80" y1="124.5" x2="718" y2="124.5"/>
	<text transform="matrix(1 0 0 1 -94.3115 126)" display="inline" fill="#A6FFFF" font-family="'Silkscreen'" font-size="8">125</text>
	<line display="inline" fill="none" stroke="#A6FFFF" x1="-80" y1="149.5" x2="718" y2="149.5"/>
	<text transform="matrix(1 0 0 1 -94.3115 151)" display="inline" fill="#A6FFFF" font-family="'Silkscreen'" font-size="8">150</text>
	<line display="inline" fill="none" stroke="#A6FFFF" x1="-80" y1="174.5" x2="718" y2="174.5"/>
	<text transform="matrix(1 0 0 1 -94.3115 176)" display="inline" fill="#A6FFFF" font-family="'Silkscreen'" font-size="8">175</text>
	<line display="inline" fill="none" stroke="#00FFFF" x1="-80" y1="199.5" x2="718" y2="199.5"/>
	<text transform="matrix(1 0 0 1 -94.3115 201)" display="inline" fill="#00FFFF" font-family="'Silkscreen'" font-size="8">200</text>
	<line display="inline" fill="none" stroke="#A6FFFF" x1="-80" y1="224.5" x2="718" y2="224.5"/>
	<text transform="matrix(1 0 0 1 -94.3115 226)" display="inline" fill="#A6FFFF" font-family="'Silkscreen'" font-size="8">225</text>
	<line display="inline" fill="none" stroke="#A6FFFF" x1="-80" y1="249.5" x2="718" y2="249.5"/>
	<text transform="matrix(1 0 0 1 -94.3115 251)" display="inline" fill="#A6FFFF" font-family="'Silkscreen'" font-size="8">250</text>
	<line display="inline" fill="none" stroke="#A6FFFF" x1="-80" y1="274.5" x2="718" y2="274.5"/>
	<text transform="matrix(1 0 0 1 -94.3115 276)" display="inline" fill="#A6FFFF" font-family="'Silkscreen'" font-size="8">275</text>
	<line display="inline" fill="none" stroke="#00FFFF" x1="-80" y1="299.5" x2="718" y2="299.5"/>
	<text transform="matrix(1 0 0 1 -94.3115 301)" display="inline" fill="#00FFFF" font-family="'Silkscreen'" font-size="8">300</text>
	<line display="inline" fill="none" stroke="#A6FFFF" x1="-80" y1="324.5" x2="718" y2="324.5"/>
	<text transform="matrix(1 0 0 1 -94.3115 326)" display="inline" fill="#A6FFFF" font-family="'Silkscreen'" font-size="8">325</text>
	<line display="inline" fill="none" stroke="#A6FFFF" x1="-80" y1="349.5" x2="718" y2="349.5"/>
	<text transform="matrix(1 0 0 1 -94.3115 351)" display="inline" fill="#A6FFFF" font-family="'Silkscreen'" font-size="8">350</text>
	<line display="inline" fill="none" stroke="#A6FFFF" x1="-80" y1="374.5" x2="718" y2="374.5"/>
	<text transform="matrix(1 0 0 1 -94.3115 376)" display="inline" fill="#A6FFFF" font-family="'Silkscreen'" font-size="8">375</text>
	<line display="inline" fill="none" stroke="#00FFFF" x1="-80" y1="399.5" x2="718" y2="399.5"/>
	<text transform="matrix(1 0 0 1 -94.3115 401)" display="inline" fill="#00FFFF" font-family="'Silkscreen'" font-size="8">400</text>
	<line display="inline" fill="none" stroke="#A6FFFF" x1="-80" y1="424.5" x2="718" y2="424.5"/>
	<text transform="matrix(1 0 0 1 -94.3115 426)" display="inline" fill="#A6FFFF" font-family="'Silkscreen'" font-size="8">425</text>
	<line display="inline" fill="none" stroke="#A6FFFF" x1="-80" y1="449.5" x2="718" y2="449.5"/>
	<text transform="matrix(1 0 0 1 -94.3115 451)" display="inline" fill="#A6FFFF" font-family="'Silkscreen'" font-size="8">450</text>
	<line display="inline" fill="none" stroke="#A6FFFF" x1="-80" y1="474.5" x2="718" y2="474.5"/>
	<text transform="matrix(1 0 0 1 -94.3115 476)" display="inline" fill="#A6FFFF" font-family="'Silkscreen'" font-size="8">475</text>
	<line display="inline" fill="none" stroke="#00FFFF" x1="-80" y1="499.5" x2="718" y2="499.5"/>
	<text transform="matrix(1 0 0 1 -94.3115 501)" display="inline" fill="#00FFFF" font-family="'Silkscreen'" font-size="8">500</text>
	<line display="inline" fill="none" stroke="#A6FFFF" x1="-80" y1="524.5" x2="718" y2="524.5"/>
	<text transform="matrix(1 0 0 1 -94.3115 526)" display="inline" fill="#A6FFFF" font-family="'Silkscreen'" font-size="8">525</text>
	<line display="inline" fill="none" stroke="#A6FFFF" x1="-80" y1="549.5" x2="718" y2="549.5"/>
	<text transform="matrix(1 0 0 1 -94.3115 551)" display="inline" fill="#A6FFFF" font-family="'Silkscreen'" font-size="8">550</text>
	<line display="inline" fill="none" stroke="#A6FFFF" x1="-80" y1="574.5" x2="718" y2="574.5"/>
	<text transform="matrix(1 0 0 1 -94.3115 576)" display="inline" fill="#A6FFFF" font-family="'Silkscreen'" font-size="8">575</text>
	<line display="inline" fill="none" stroke="#00FFFF" x1="-80" y1="599.5" x2="718" y2="599.5"/>
	<text transform="matrix(1 0 0 1 -94.3115 601)" display="inline" fill="#00FFFF" font-family="'Silkscreen'" font-size="8">600</text>
	<line display="inline" fill="none" stroke="#A6FFFF" x1="-80" y1="624.5" x2="718" y2="624.5"/>
	<text transform="matrix(1 0 0 1 -94.3115 626)" display="inline" fill="#A6FFFF" font-family="'Silkscreen'" font-size="8">625</text>
	<line display="inline" fill="none" stroke="#A6FFFF" x1="-80" y1="649.5" x2="718" y2="649.5"/>
	<text transform="matrix(1 0 0 1 -94.3115 651)" display="inline" fill="#A6FFFF" font-family="'Silkscreen'" font-size="8">650</text>
	<line display="inline" fill="none" stroke="#A6FFFF" x1="-80" y1="674.5" x2="718" y2="674.5"/>
	<text transform="matrix(1 0 0 1 -94.3115 676)" display="inline" fill="#A6FFFF" font-family="'Silkscreen'" font-size="8">675</text>
	<line display="inline" fill="none" stroke="#00FFFF" x1="-80" y1="699.5" x2="718" y2="699.5"/>
	<text transform="matrix(1 0 0 1 -94.3115 701)" display="inline" fill="#00FFFF" font-family="'Silkscreen'" font-size="8">700</text>
	<line display="inline" fill="none" stroke="#A6FFFF" x1="-80" y1="724.5" x2="718" y2="724.5"/>
	<text transform="matrix(1 0 0 1 -94.3115 726)" display="inline" fill="#A6FFFF" font-family="'Silkscreen'" font-size="8">725</text>
	<line display="inline" fill="none" stroke="#A6FFFF" x1="-80" y1="749.5" x2="718" y2="749.5"/>
	<text transform="matrix(1 0 0 1 -94.3115 751)" display="inline" fill="#A6FFFF" font-family="'Silkscreen'" font-size="8">750</text>
	<line display="inline" fill="none" stroke="#A6FFFF" x1="-80" y1="774.5" x2="718" y2="774.5"/>
	<text transform="matrix(1 0 0 1 -94.3115 776)" display="inline" fill="#A6FFFF" font-family="'Silkscreen'" font-size="8">775</text>
	<line display="inline" fill="none" stroke="#00FFFF" x1="-80" y1="799.5" x2="718" y2="799.5"/>
	<text transform="matrix(1 0 0 1 -94.3115 801)" display="inline" fill="#00FFFF" font-family="'Silkscreen'" font-size="8">800</text>
	<line display="inline" fill="none" stroke="#A6FFFF" x1="-80" y1="824.5" x2="718" y2="824.5"/>
	<text transform="matrix(1 0 0 1 -94.3115 826)" display="inline" fill="#A6FFFF" font-family="'Silkscreen'" font-size="8">825</text>
	<line display="inline" fill="none" stroke="#A6FFFF" x1="-80" y1="849.5" x2="718" y2="849.5"/>
	<text transform="matrix(1 0 0 1 -94.3115 851)" display="inline" fill="#A6FFFF" font-family="'Silkscreen'" font-size="8">850</text>
	<line display="inline" fill="none" stroke="#A6FFFF" x1="-80" y1="874.5" x2="718" y2="874.5"/>
	<text transform="matrix(1 0 0 1 -94.3115 876)" display="inline" fill="#A6FFFF" font-family="'Silkscreen'" font-size="8">875</text>
	<line display="inline" fill="none" stroke="#00FFFF" x1="-80" y1="899.5" x2="718" y2="899.5"/>
	<text transform="matrix(1 0 0 1 -94.3115 901)" display="inline" fill="#00FFFF" font-family="'Silkscreen'" font-size="8">900</text>
	<line display="inline" fill="none" stroke="#A6FFFF" x1="-80" y1="924.5" x2="718" y2="924.5"/>
	<text transform="matrix(1 0 0 1 -94.3115 926)" display="inline" fill="#A6FFFF" font-family="'Silkscreen'" font-size="8">925</text>
	<line display="inline" fill="none" stroke="#A6FFFF" x1="-80" y1="949.5" x2="718" y2="949.5"/>
	<text transform="matrix(1 0 0 1 -94.3115 951)" display="inline" fill="#A6FFFF" font-family="'Silkscreen'" font-size="8">950</text>
	<line display="inline" fill="none" stroke="#A6FFFF" x1="-80" y1="974.5" x2="718" y2="974.5"/>
	<text transform="matrix(1 0 0 1 -94.3115 976)" display="inline" fill="#A6FFFF" font-family="'Silkscreen'" font-size="8">975</text>
	<line display="inline" fill="none" stroke="#00FFFF" x1="-80" y1="999.5" x2="718" y2="999.5"/>
	<text transform="matrix(1 0 0 1 -98.4155 1001)" display="inline" fill="#00FFFF" font-family="'Silkscreen'" font-size="8">1000</text>
	<line display="inline" fill="none" stroke="#A6FFFF" x1="-80" y1="1024.5" x2="718" y2="1024.5"/>
	<text transform="matrix(1 0 0 1 -98.4155 1026)" display="inline" fill="#A6FFFF" font-family="'Silkscreen'" font-size="8">1025</text>
	<line display="inline" fill="none" stroke="#A6FFFF" x1="-80" y1="1049.5" x2="718" y2="1049.5"/>
	<text transform="matrix(1 0 0 1 -98.4155 1051)" display="inline" fill="#A6FFFF" font-family="'Silkscreen'" font-size="8">1050</text>
	<line display="inline" fill="none" stroke="#A6FFFF" x1="-80" y1="1074.5" x2="718" y2="1074.5"/>
	<text transform="matrix(1 0 0 1 -98.4155 1076)" display="inline" fill="#A6FFFF" font-family="'Silkscreen'" font-size="8">1075</text>
	<line display="inline" fill="none" stroke="#00FFFF" x1="-80" y1="1099.5" x2="718" y2="1099.5"/>
	<text transform="matrix(1 0 0 1 -98.4155 1101)" display="inline" fill="#00FFFF" font-family="'Silkscreen'" font-size="8">1100</text>
	<line display="inline" fill="none" stroke="#A6FFFF" x1="-80" y1="1124.5" x2="718" y2="1124.5"/>
	<text transform="matrix(1 0 0 1 -98.4155 1126)" display="inline" fill="#A6FFFF" font-family="'Silkscreen'" font-size="8">1125</text>
	<line display="inline" fill="none" stroke="#A6FFFF" x1="-80" y1="1149.5" x2="718" y2="1149.5"/>
	<text transform="matrix(1 0 0 1 -98.4155 1151)" display="inline" fill="#A6FFFF" font-family="'Silkscreen'" font-size="8">1150</text>
	<line display="inline" fill="none" stroke="#A6FFFF" x1="-80" y1="1174.5" x2="718" y2="1174.5"/>
	<text transform="matrix(1 0 0 1 -98.4155 1176)" display="inline" fill="#A6FFFF" font-family="'Silkscreen'" font-size="8">1175</text>
	<line display="inline" fill="none" stroke="#00FFFF" x1="-80" y1="1199.5" x2="718" y2="1199.5"/>
	<text transform="matrix(1 0 0 1 -98.4155 1201)" display="inline" fill="#00FFFF" font-family="'Silkscreen'" font-size="8">1200</text>
	<line display="inline" fill="none" stroke="#A6FFFF" x1="-80" y1="1224.5" x2="718" y2="1224.5"/>
	<text transform="matrix(1 0 0 1 -98.4155 1226)" display="inline" fill="#A6FFFF" font-family="'Silkscreen'" font-size="8">1225</text>
	<line display="inline" fill="none" stroke="#A6FFFF" x1="-80" y1="1249.5" x2="718" y2="1249.5"/>
	<text transform="matrix(1 0 0 1 -98.4155 1251)" display="inline" fill="#A6FFFF" font-family="'Silkscreen'" font-size="8">1250</text>
	<line display="inline" fill="none" stroke="#A6FFFF" x1="-80" y1="1274.5" x2="718" y2="1274.5"/>
	<text transform="matrix(1 0 0 1 -98.4155 1276)" display="inline" fill="#A6FFFF" font-family="'Silkscreen'" font-size="8">1275</text>
	<line display="inline" fill="none" stroke="#00FFFF" x1="-80" y1="1299.5" x2="718" y2="1299.5"/>
	<text transform="matrix(1 0 0 1 -98.4155 1301)" display="inline" fill="#00FFFF" font-family="'Silkscreen'" font-size="8">1300</text>
	<line display="inline" fill="none" stroke="#A6FFFF" x1="-80" y1="1324.5" x2="718" y2="1324.5"/>
	<text transform="matrix(1 0 0 1 -98.4155 1326)" display="inline" fill="#A6FFFF" font-family="'Silkscreen'" font-size="8">1325</text>
	<line display="inline" fill="none" stroke="#A6FFFF" x1="-80" y1="1349.5" x2="718" y2="1349.5"/>
	<text transform="matrix(1 0 0 1 -98.4155 1351)" display="inline" fill="#A6FFFF" font-family="'Silkscreen'" font-size="8">1350</text>
	<line display="inline" fill="none" stroke="#A6FFFF" x1="-80" y1="1374.5" x2="718" y2="1374.5"/>
	<text transform="matrix(1 0 0 1 -98.4155 1376)" display="inline" fill="#A6FFFF" font-family="'Silkscreen'" font-size="8">1375</text>
	<line display="inline" fill="none" stroke="#00FFFF" x1="-80" y1="1399.5" x2="718" y2="1399.5"/>
	<text transform="matrix(1 0 0 1 -98.4155 1401)" display="inline" fill="#00FFFF" font-family="'Silkscreen'" font-size="8">1400</text>
	<line display="inline" fill="none" stroke="#A6FFFF" x1="-80" y1="1424.5" x2="718" y2="1424.5"/>
	<text transform="matrix(1 0 0 1 -98.4155 1426)" display="inline" fill="#A6FFFF" font-family="'Silkscreen'" font-size="8">1425</text>
	<line display="inline" fill="none" stroke="#A6FFFF" x1="-80" y1="1449.5" x2="718" y2="1449.5"/>
	<text transform="matrix(1 0 0 1 -98.4155 1451)" display="inline" fill="#A6FFFF" font-family="'Silkscreen'" font-size="8">1450</text>
	<line display="inline" fill="none" stroke="#A6FFFF" x1="-80" y1="1474.5" x2="718" y2="1474.5"/>
	<text transform="matrix(1 0 0 1 -98.4155 1476)" display="inline" fill="#A6FFFF" font-family="'Silkscreen'" font-size="8">1475</text>
	<line display="inline" fill="none" stroke="#00FFFF" x1="-80" y1="1499.5" x2="718" y2="1499.5"/>
	<text transform="matrix(1 0 0 1 -98.4155 1501)" display="inline" fill="#00FFFF" font-family="'Silkscreen'" font-size="8">1500</text>
	<line display="inline" fill="none" stroke="#00FFFF" x1="-0.5" y1="-80" x2="-0.5" y2="1500"/>
	<text transform="matrix(1 0 0 1 23 -83.6201)" display="inline" fill="#A6FFFF" font-family="'Silkscreen'" font-size="8">25</text>
	<line display="inline" fill="none" stroke="#A6FFFF" x1="24.5" y1="-80" x2="24.5" y2="1500"/>
	<text transform="matrix(1 0 0 1 48 -83.6201)" display="inline" fill="#A6FFFF" font-family="'Silkscreen'" font-size="8">50</text>
	<line display="inline" fill="none" stroke="#A6FFFF" x1="49.5" y1="-80" x2="49.5" y2="1500"/>
	<text transform="matrix(1 0 0 1 73 -83.6201)" display="inline" fill="#A6FFFF" font-family="'Silkscreen'" font-size="8">75</text>
	<line display="inline" fill="none" stroke="#A6FFFF" x1="74.5" y1="-80" x2="74.5" y2="1500"/>
	<text transform="matrix(1 0 0 1 98 -83.6201)" display="inline" fill="#00FFFF" font-family="'Silkscreen'" font-size="8">100</text>
	<line display="inline" fill="none" stroke="#00FFFF" x1="99.5" y1="-79" x2="99.5" y2="1501"/>
	<text transform="matrix(1 0 0 1 123 -83.6201)" display="inline" fill="#A6FFFF" font-family="'Silkscreen'" font-size="8">125</text>
	<line display="inline" fill="none" stroke="#A6FFFF" x1="124.5" y1="-80" x2="124.5" y2="1500"/>
	<text transform="matrix(1 0 0 1 148 -83.6201)" display="inline" fill="#A6FFFF" font-family="'Silkscreen'" font-size="8">150</text>
	<line display="inline" fill="none" stroke="#A6FFFF" x1="149.5" y1="-80" x2="149.5" y2="1500"/>
	<text transform="matrix(1 0 0 1 173 -83.6201)" display="inline" fill="#A6FFFF" font-family="'Silkscreen'" font-size="8">175</text>
	<line display="inline" fill="none" stroke="#A6FFFF" x1="174.5" y1="-80" x2="174.5" y2="1500"/>
	<text transform="matrix(1 0 0 1 198 -83.6201)" display="inline" fill="#00FFFF" font-family="'Silkscreen'" font-size="8">200</text>
	<line display="inline" fill="none" stroke="#00FFFF" x1="199.5" y1="-80" x2="199.5" y2="1500"/>
	<text transform="matrix(1 0 0 1 223 -83.6201)" display="inline" fill="#A6FFFF" font-family="'Silkscreen'" font-size="8">225</text>
	<line display="inline" fill="none" stroke="#A6FFFF" x1="224.5" y1="-80" x2="224.5" y2="1500"/>
	<text transform="matrix(1 0 0 1 248 -83.6201)" display="inline" fill="#A6FFFF" font-family="'Silkscreen'" font-size="8">250</text>
	<line display="inline" fill="none" stroke="#A6FFFF" x1="249.5" y1="-80" x2="249.5" y2="1500"/>
	<text transform="matrix(1 0 0 1 273 -83.6201)" display="inline" fill="#A6FFFF" font-family="'Silkscreen'" font-size="8">275</text>
	<line display="inline" fill="none" stroke="#A6FFFF" x1="274.5" y1="-80" x2="274.5" y2="1500"/>
	<text transform="matrix(1 0 0 1 298 -83.6201)" display="inline" fill="#00FFFF" font-family="'Silkscreen'" font-size="8">300</text>
	<line display="inline" fill="none" stroke="#00FFFF" x1="299.5" y1="-80" x2="299.5" y2="1500"/>
	<text transform="matrix(1 0 0 1 323 -83.6201)" display="inline" fill="#A6FFFF" font-family="'Silkscreen'" font-size="8">325</text>
	<line display="inline" fill="none" stroke="#A6FFFF" x1="324.5" y1="-80" x2="324.5" y2="1500"/>
	<text transform="matrix(1 0 0 1 348 -83.6201)" display="inline" fill="#A6FFFF" font-family="'Silkscreen'" font-size="8">350</text>
	<line display="inline" fill="none" stroke="#A6FFFF" x1="349.5" y1="-80" x2="349.5" y2="1500"/>
	<text transform="matrix(1 0 0 1 373 -83.6201)" display="inline" fill="#A6FFFF" font-family="'Silkscreen'" font-size="8">375</text>
	<line display="inline" fill="none" stroke="#A6FFFF" x1="374.5" y1="-80" x2="374.5" y2="1500"/>
	<rect x="375" y="124" display="inline" opacity="0.15" fill="#FF00FF" width="149" height="100"/>
</g>
</svg>
