<?xml version="1.0" encoding="utf-8"?>
<!-- Generator: Adobe Illustrator 16.0.0, SVG Export Plug-In . SVG Version: 6.00 Build 0)  -->
<!DOCTYPE svg PUBLIC "-//W3C//DTD SVG 1.1//EN" "http://www.w3.org/Graphics/SVG/1.1/DTD/svg11.dtd">
<svg version="1.1" xmlns="http://www.w3.org/2000/svg" xmlns:xlink="http://www.w3.org/1999/xlink" x="0px" y="0px" width="165px"
	 height="200px" viewBox="0 0 165 200" enable-background="new 0 0 165 200" xml:space="preserve">
<g id="BACKGROUND" display="none">
	<rect display="inline" fill="#808080" width="165" height="1350"/>
</g>
<g id="ELEMENTS">
	<g>
		<rect x="100" y="28" fill="#FFFFFF" width="8" height="2"/>
		<rect x="103" y="25" fill="#FFFFFF" width="2" height="8"/>
	</g>
	<polygon fill="#FFFFFF" points="84.899,1.416 83.484,0 79.949,3.536 76.414,0 75,1.416 78.535,4.951 75,8.486 76.414,9.9 
		79.949,6.365 83.484,9.9 84.899,8.486 81.364,4.951 	"/>
	<polygon fill="#FFFFFF" points="82,26.431 81.07,25.5 78.749,27.821 76.428,25.5 75.5,26.431 77.821,28.751 75.5,31.073 76.428,32 
		78.749,29.679 81.07,32 82,31.073 79.679,28.751 	"/>
	<g>
		<rect x="100" y="4" fill="#FFFFFF" width="10" height="2"/>
		<rect x="104" fill="#FFFFFF" width="2" height="10"/>
	</g>
	<g>
		<circle fill="none" stroke="#E0F2BF" stroke-width="2" stroke-miterlimit="10" cx="-180" cy="87" r="9"/>
		<g>
			<path fill="#E0F2BF" d="M-180,85.375c0.896,0,1.625,0.729,1.625,1.625s-0.729,1.625-1.625,1.625s-1.625-0.729-1.625-1.625
				S-180.896,85.375-180,85.375 M-180,84.375c-1.45,0-2.625,1.175-2.625,2.625s1.175,2.625,2.625,2.625s2.625-1.175,2.625-2.625
				S-178.55,84.375-180,84.375L-180,84.375z"/>
		</g>
		<line fill="none" stroke="#E0F2BF" stroke-width="2" stroke-miterlimit="10" x1="-180" y1="75" x2="-180" y2="82.5"/>
		<line fill="none" stroke="#E0F2BF" stroke-width="2" stroke-miterlimit="10" x1="-180" y1="91.5" x2="-180" y2="99"/>
		<line fill="none" stroke="#E0F2BF" stroke-width="2" stroke-miterlimit="10" x1="-168" y1="87" x2="-175.5" y2="87"/>
		<line fill="none" stroke="#E0F2BF" stroke-width="2" stroke-miterlimit="10" x1="-184.5" y1="87" x2="-192" y2="87"/>
	</g>
	<polyline fill="none" stroke="#FFFFFF" stroke-width="2" stroke-miterlimit="10" points="1,53 11,63 1,73 	"/>
	<polyline fill="none" stroke="#666666" stroke-width="2" stroke-miterlimit="10" points="26,63 31,68 26,73 	"/>
	<polyline fill="none" stroke="#FFFFFF" stroke-width="2" stroke-miterlimit="10" points="26,51 1,26 26,1 	"/>
	<polyline fill="none" stroke="#FFFFFF" stroke-width="2" stroke-miterlimit="10" points="60,0.5 53,7.5 50,4.5 	"/>
	<polyline fill="none" stroke="#FFFFFF" stroke-width="2" stroke-miterlimit="10" points="57,25.5 52.1,30.4 50,28.3 	"/>
	<g>
		<rect y="175" width="21" height="3.999"/>
		<rect y="178.999" fill="#FE0019" width="21" height="4.001"/>
		<rect y="183" fill="#FFDF00" width="21" height="4"/>
	</g>
	<g>
		<rect x="25" y="175" fill="#15008B" width="21" height="12"/>
		<polygon fill="#FFFFFF" points="46,179 41.263,179 46,176.334 46,175 43.554,175 37,178.639 37,175 34,175 34,178.639 27.336,175 
			25,175 25,176.334 29.626,179 25,179 25,183 29.627,183 25,185.602 25,187 27.336,187 34,183.299 34,187 37,187 37,183.298 
			43.554,187 46,187 46,185.602 41.262,183 46,183 		"/>
		<polygon fill="#FE0019" points="36.49,175 36.49,179.775 46,179.775 46,182.161 36.49,182.161 36.49,187 34.4,187 34.4,182.161 
			25,182.161 25,179.775 34.4,179.775 34.4,175 		"/>
		<polygon fill="#FE0019" points="31.963,178.978 30.406,178.978 25,175.891 25,175 		"/>
		<polygon fill="#FE0019" points="45.889,175 38.927,178.978 37.37,178.978 44.332,175 		"/>
		<polygon fill="#FE0019" points="46,186.102 40.483,183 38.927,183 46,186.992 		"/>
		<polygon fill="#FE0019" points="31.963,183 25,186.947 25,187 26.465,187 33.521,183 		"/>
	</g>
	<g>
		<rect x="50" y="175" fill="#00B542" width="7" height="12"/>
		<rect x="57" y="175" fill="#FFFFFF" width="7" height="12"/>
		<rect x="64" y="175" fill="#FE0019" width="7" height="12"/>
	</g>
	<g>
		<rect x="75" y="175" fill="#15008B" width="7" height="12"/>
		<rect x="82" y="175" fill="#FFFFFF" width="7" height="12"/>
		<rect x="89" y="175" fill="#FE0019" width="7" height="12"/>
	</g>
	<g>
		<g>
			<polygon fill="#FFFFFF" points="44,106 51,106 52,102 44,102 43.357,100 41,100 41,101 42,101 			"/>
		</g>
		<circle fill="#FFFFFF" cx="45.25" cy="108.25" r="1.25"/>
		<circle fill="#FFFFFF" cx="49.75" cy="108.25" r="1.25"/>
	</g>
	<g>
		<g>
			<polygon fill="#85C900" points="44,131 51,131 52,127 44,127 43.357,125 41,125 41,126 42,126 			"/>
		</g>
		<circle fill="#85C900" cx="45.25" cy="133.25" r="1.25"/>
		<circle fill="#85C900" cx="49.75" cy="133.25" r="1.25"/>
	</g>
	<g>
		<path fill="#FFFFFF" d="M3,102H0v-2h4l1,2h17l-2,9H5L3,102z M7.75,112C6.784,112,6,112.784,6,113.75s0.784,1.75,1.75,1.75
			s1.75-0.784,1.75-1.75S8.716,112,7.75,112z M17.25,112c-0.966,0-1.75,0.784-1.75,1.75s0.784,1.75,1.75,1.75s1.75-0.784,1.75-1.75
			S18.216,112,17.25,112z M10,107H6.833l0.334,2H10V107z M10,104H6.333l0.334,2H10V104z M14,107h-3v2h3V107z M14,104h-3v2h3V104z
			 M18.167,107H15v2h2.833L18.167,107z M18.667,104H15v2h3.333L18.667,104z"/>
	</g>
	<g>
		<g>
			<polygon fill="#85C900" points="-58,133 -48,133 -47,127 -57,127 -58,125 -61,125 -61,127 -59,127 			"/>
		</g>
		<circle fill="#85C900" cx="-55.5" cy="135.5" r="1.5"/>
		<circle fill="#85C900" cx="-49.5" cy="135.5" r="1.5"/>
	</g>
	<g>
		<path fill="#85C900" d="M3,127H0v-2h4l1,2h17l-2,9H5L3,127z M7.75,137C6.784,137,6,137.784,6,138.75s0.784,1.75,1.75,1.75
			s1.75-0.784,1.75-1.75S8.716,137,7.75,137z M17.25,137c-0.966,0-1.75,0.784-1.75,1.75s0.784,1.75,1.75,1.75s1.75-0.784,1.75-1.75
			S18.216,137,17.25,137z M10,132H6.833l0.334,2H10V132z M10,129H6.333l0.334,2H10V129z M14,132h-3v2h3V132z M14,129h-3v2h3V129z
			 M18.167,132H15v2h2.833L18.167,132z M18.667,129H15v2h3.333L18.667,129z"/>
	</g>
	<g>
		<g>
			<line fill="none" stroke="#FFFFFF" stroke-miterlimit="10" x1="39" y1="104.5" x2="35" y2="104.5"/>
			<g>
				<polygon fill="#FFFFFF" points="38,102.755 41.022,104.5 38,106.245 				"/>
			</g>
		</g>
	</g>
	<g>
		<g>
			<line fill="none" stroke="#85C900" stroke-miterlimit="10" x1="39" y1="129.5" x2="35" y2="129.5"/>
			<g>
				<polygon fill="#85C900" points="38,127.755 41.022,129.5 38,131.245 				"/>
			</g>
		</g>
	</g>
	<g>
		<path fill="#FFFFFF" d="M141.133,8.684c0.129,0.129,0.194,0.282,0.194,0.459c0,0.177-0.065,0.33-0.194,0.459
			c-0.129,0.129-0.282,0.194-0.459,0.194h-2.286c0,1.163-0.228,2.149-0.684,2.959l2.123,2.132c0.129,0.129,0.194,0.283,0.194,0.459
			s-0.064,0.33-0.194,0.459c-0.123,0.129-0.275,0.194-0.459,0.194c-0.184,0-0.336-0.065-0.458-0.194l-2.021-2.01
			c-0.034,0.034-0.085,0.078-0.153,0.132c-0.068,0.055-0.211,0.152-0.429,0.291c-0.218,0.14-0.439,0.264-0.663,0.373
			c-0.225,0.108-0.503,0.208-0.837,0.295c-0.333,0.089-0.663,0.133-0.99,0.133V5.878h-1.306v9.143c-0.347,0-0.692-0.045-1.036-0.138
			c-0.343-0.091-0.639-0.204-0.887-0.336c-0.249-0.133-0.473-0.266-0.673-0.398c-0.201-0.133-0.349-0.243-0.444-0.332l-0.153-0.143
			l-1.867,2.112c-0.136,0.143-0.3,0.214-0.49,0.214c-0.164,0-0.31-0.054-0.439-0.163c-0.129-0.123-0.199-0.274-0.209-0.454
			c-0.01-0.18,0.042-0.338,0.158-0.474l2.062-2.316c-0.395-0.776-0.592-1.708-0.592-2.796h-2.286c-0.177,0-0.33-0.065-0.458-0.194
			C125.065,9.473,125,9.32,125,9.143c0-0.177,0.065-0.33,0.194-0.459c0.129-0.129,0.282-0.194,0.458-0.194h2.286v-3l-1.765-1.765
			c-0.129-0.13-0.193-0.283-0.193-0.459s0.064-0.33,0.193-0.459c0.129-0.129,0.283-0.193,0.459-0.193s0.33,0.064,0.459,0.193
			l1.765,1.765h8.612l1.766-1.765c0.129-0.129,0.282-0.193,0.459-0.193c0.176,0,0.33,0.064,0.458,0.193
			c0.129,0.13,0.194,0.283,0.194,0.459s-0.065,0.33-0.194,0.459l-1.765,1.765v3h2.286C140.851,8.49,141.003,8.555,141.133,8.684z
			 M136.429,3.266h-6.531c0-0.905,0.318-1.675,0.954-2.312S132.258,0,133.164,0c0.904,0,1.675,0.318,2.311,0.954
			C136.11,1.59,136.429,2.361,136.429,3.266z"/>
	</g>
</g>
<g id="GRID" display="none">
	<line display="inline" fill="none" stroke="#00FFFF" x1="-80" y1="-0.5" x2="718" y2="-0.5"/>
	<text transform="matrix(1 0 0 1 -86.104 1)" display="inline" fill="#00FFFF" font-family="'Silkscreen'" font-size="8">0</text>
	<text transform="matrix(1 0 0 1 -86.3281 -16)" display="inline" fill="#00FFFF" font-family="'Silkscreen'" font-size="8">Y</text>
	<text transform="matrix(1 0 0 1 -2 -83.6201)" display="inline" fill="#00FFFF" font-family="'Silkscreen'" font-size="8">0</text>
	<text transform="matrix(1 0 0 1 -22 -83.6201)" display="inline" fill="#00FFFF" font-family="'Silkscreen'" font-size="8">X</text>
	<line display="inline" fill="none" stroke="#6BFFFF" x1="-80" y1="24.5" x2="718" y2="24.5"/>
	<text transform="matrix(1 0 0 1 -90.208 26)" display="inline" fill="#6BFFFF" font-family="'Silkscreen'" font-size="8">25</text>
	<line display="inline" fill="none" stroke="#6BFFFF" x1="-80" y1="49.5" x2="718" y2="49.5"/>
	<text transform="matrix(1 0 0 1 -90.208 51)" display="inline" fill="#6BFFFF" font-family="'Silkscreen'" font-size="8">50</text>
	<line display="inline" fill="none" stroke="#6BFFFF" x1="-80" y1="74.5" x2="718" y2="74.5"/>
	<text transform="matrix(1 0 0 1 -90.208 76)" display="inline" fill="#6BFFFF" font-family="'Silkscreen'" font-size="8">75</text>
	<line display="inline" fill="none" stroke="#00FFFF" x1="-80" y1="99.5" x2="718" y2="99.5"/>
	<text transform="matrix(1 0 0 1 -94.3115 101)" display="inline" fill="#00FFFF" font-family="'Silkscreen'" font-size="8">100</text>
	<line display="inline" fill="none" stroke="#6BFFFF" x1="-80" y1="124.5" x2="718" y2="124.5"/>
	<text transform="matrix(1 0 0 1 -94.3115 126)" display="inline" fill="#6BFFFF" font-family="'Silkscreen'" font-size="8">125</text>
	<line display="inline" fill="none" stroke="#6BFFFF" x1="-80" y1="149.5" x2="718" y2="149.5"/>
	<text transform="matrix(1 0 0 1 -94.3115 151)" display="inline" fill="#6BFFFF" font-family="'Silkscreen'" font-size="8">150</text>
	<line display="inline" fill="none" stroke="#6BFFFF" x1="-80" y1="174.5" x2="718" y2="174.5"/>
	<text transform="matrix(1 0 0 1 -94.3115 176)" display="inline" fill="#6BFFFF" font-family="'Silkscreen'" font-size="8">175</text>
	<line display="inline" fill="none" stroke="#00FFFF" x1="-80" y1="199.5" x2="718" y2="199.5"/>
	<text transform="matrix(1 0 0 1 -94.3115 201)" display="inline" fill="#00FFFF" font-family="'Silkscreen'" font-size="8">200</text>
	<line display="inline" fill="none" stroke="#6BFFFF" x1="-80" y1="224.5" x2="718" y2="224.5"/>
	<text transform="matrix(1 0 0 1 -94.3115 226)" display="inline" fill="#6BFFFF" font-family="'Silkscreen'" font-size="8">225</text>
	<line display="inline" fill="none" stroke="#6BFFFF" x1="-80" y1="249.5" x2="718" y2="249.5"/>
	<text transform="matrix(1 0 0 1 -94.3115 251)" display="inline" fill="#6BFFFF" font-family="'Silkscreen'" font-size="8">250</text>
	<line display="inline" fill="none" stroke="#6BFFFF" x1="-80" y1="274.5" x2="718" y2="274.5"/>
	<text transform="matrix(1 0 0 1 -94.3115 276)" display="inline" fill="#6BFFFF" font-family="'Silkscreen'" font-size="8">275</text>
	<line display="inline" fill="none" stroke="#00FFFF" x1="-80" y1="299.5" x2="718" y2="299.5"/>
	<text transform="matrix(1 0 0 1 -94.3115 301)" display="inline" fill="#00FFFF" font-family="'Silkscreen'" font-size="8">300</text>
	<line display="inline" fill="none" stroke="#6BFFFF" x1="-80" y1="324.5" x2="718" y2="324.5"/>
	<text transform="matrix(1 0 0 1 -94.3115 326)" display="inline" fill="#6BFFFF" font-family="'Silkscreen'" font-size="8">325</text>
	<line display="inline" fill="none" stroke="#6BFFFF" x1="-80" y1="349.5" x2="718" y2="349.5"/>
	<text transform="matrix(1 0 0 1 -94.3115 351)" display="inline" fill="#6BFFFF" font-family="'Silkscreen'" font-size="8">350</text>
	<line display="inline" fill="none" stroke="#6BFFFF" x1="-80" y1="374.5" x2="718" y2="374.5"/>
	<text transform="matrix(1 0 0 1 -94.3115 376)" display="inline" fill="#6BFFFF" font-family="'Silkscreen'" font-size="8">375</text>
	<line display="inline" fill="none" stroke="#00FFFF" x1="-80" y1="399.5" x2="718" y2="399.5"/>
	<text transform="matrix(1 0 0 1 -94.3115 401)" display="inline" fill="#00FFFF" font-family="'Silkscreen'" font-size="8">400</text>
	<line display="inline" fill="none" stroke="#6BFFFF" x1="-80" y1="424.5" x2="718" y2="424.5"/>
	<text transform="matrix(1 0 0 1 -94.3115 426)" display="inline" fill="#6BFFFF" font-family="'Silkscreen'" font-size="8">425</text>
	<line display="inline" fill="none" stroke="#6BFFFF" x1="-80" y1="449.5" x2="718" y2="449.5"/>
	<text transform="matrix(1 0 0 1 -94.3115 451)" display="inline" fill="#6BFFFF" font-family="'Silkscreen'" font-size="8">450</text>
	<line display="inline" fill="none" stroke="#6BFFFF" x1="-80" y1="474.5" x2="718" y2="474.5"/>
	<text transform="matrix(1 0 0 1 -94.3115 476)" display="inline" fill="#6BFFFF" font-family="'Silkscreen'" font-size="8">475</text>
	<line display="inline" fill="none" stroke="#00FFFF" x1="-80" y1="499.5" x2="718" y2="499.5"/>
	<text transform="matrix(1 0 0 1 -94.3115 501)" display="inline" fill="#00FFFF" font-family="'Silkscreen'" font-size="8">500</text>
	<line display="inline" fill="none" stroke="#6BFFFF" x1="-80" y1="524.5" x2="718" y2="524.5"/>
	<text transform="matrix(1 0 0 1 -94.3115 526)" display="inline" fill="#6BFFFF" font-family="'Silkscreen'" font-size="8">525</text>
	<line display="inline" fill="none" stroke="#6BFFFF" x1="-80" y1="549.5" x2="718" y2="549.5"/>
	<text transform="matrix(1 0 0 1 -94.3115 551)" display="inline" fill="#6BFFFF" font-family="'Silkscreen'" font-size="8">550</text>
	<line display="inline" fill="none" stroke="#6BFFFF" x1="-80" y1="574.5" x2="718" y2="574.5"/>
	<text transform="matrix(1 0 0 1 -94.3115 576)" display="inline" fill="#6BFFFF" font-family="'Silkscreen'" font-size="8">575</text>
	<line display="inline" fill="none" stroke="#00FFFF" x1="-80" y1="599.5" x2="718" y2="599.5"/>
	<text transform="matrix(1 0 0 1 -94.3115 601)" display="inline" fill="#00FFFF" font-family="'Silkscreen'" font-size="8">600</text>
	<line display="inline" fill="none" stroke="#6BFFFF" x1="-80" y1="624.5" x2="718" y2="624.5"/>
	<text transform="matrix(1 0 0 1 -94.3115 626)" display="inline" fill="#6BFFFF" font-family="'Silkscreen'" font-size="8">625</text>
	<line display="inline" fill="none" stroke="#6BFFFF" x1="-80" y1="649.5" x2="718" y2="649.5"/>
	<text transform="matrix(1 0 0 1 -94.3115 651)" display="inline" fill="#6BFFFF" font-family="'Silkscreen'" font-size="8">650</text>
	<line display="inline" fill="none" stroke="#6BFFFF" x1="-80" y1="674.5" x2="718" y2="674.5"/>
	<text transform="matrix(1 0 0 1 -94.3115 676)" display="inline" fill="#6BFFFF" font-family="'Silkscreen'" font-size="8">675</text>
	<line display="inline" fill="none" stroke="#00FFFF" x1="-80" y1="699.5" x2="718" y2="699.5"/>
	<text transform="matrix(1 0 0 1 -94.3115 701)" display="inline" fill="#00FFFF" font-family="'Silkscreen'" font-size="8">700</text>
	<line display="inline" fill="none" stroke="#6BFFFF" x1="-80" y1="724.5" x2="718" y2="724.5"/>
	<text transform="matrix(1 0 0 1 -94.3115 726)" display="inline" fill="#6BFFFF" font-family="'Silkscreen'" font-size="8">725</text>
	<line display="inline" fill="none" stroke="#6BFFFF" x1="-80" y1="749.5" x2="718" y2="749.5"/>
	<text transform="matrix(1 0 0 1 -94.3115 751)" display="inline" fill="#6BFFFF" font-family="'Silkscreen'" font-size="8">750</text>
	<line display="inline" fill="none" stroke="#6BFFFF" x1="-80" y1="774.5" x2="718" y2="774.5"/>
	<text transform="matrix(1 0 0 1 -94.3115 776)" display="inline" fill="#6BFFFF" font-family="'Silkscreen'" font-size="8">775</text>
	<line display="inline" fill="none" stroke="#00FFFF" x1="-80" y1="799.5" x2="718" y2="799.5"/>
	<text transform="matrix(1 0 0 1 -94.3115 801)" display="inline" fill="#00FFFF" font-family="'Silkscreen'" font-size="8">800</text>
	<line display="inline" fill="none" stroke="#6BFFFF" x1="-80" y1="824.5" x2="718" y2="824.5"/>
	<text transform="matrix(1 0 0 1 -94.3115 826)" display="inline" fill="#6BFFFF" font-family="'Silkscreen'" font-size="8">825</text>
	<line display="inline" fill="none" stroke="#6BFFFF" x1="-80" y1="849.5" x2="718" y2="849.5"/>
	<text transform="matrix(1 0 0 1 -94.3115 851)" display="inline" fill="#6BFFFF" font-family="'Silkscreen'" font-size="8">850</text>
	<line display="inline" fill="none" stroke="#6BFFFF" x1="-80" y1="874.5" x2="718" y2="874.5"/>
	<text transform="matrix(1 0 0 1 -94.3115 876)" display="inline" fill="#6BFFFF" font-family="'Silkscreen'" font-size="8">875</text>
	<line display="inline" fill="none" stroke="#00FFFF" x1="-80" y1="899.5" x2="718" y2="899.5"/>
	<text transform="matrix(1 0 0 1 -94.3115 901)" display="inline" fill="#00FFFF" font-family="'Silkscreen'" font-size="8">900</text>
	<line display="inline" fill="none" stroke="#6BFFFF" x1="-80" y1="924.5" x2="718" y2="924.5"/>
	<text transform="matrix(1 0 0 1 -94.3115 926)" display="inline" fill="#6BFFFF" font-family="'Silkscreen'" font-size="8">925</text>
	<line display="inline" fill="none" stroke="#6BFFFF" x1="-80" y1="949.5" x2="718" y2="949.5"/>
	<text transform="matrix(1 0 0 1 -94.3115 951)" display="inline" fill="#6BFFFF" font-family="'Silkscreen'" font-size="8">950</text>
	<line display="inline" fill="none" stroke="#6BFFFF" x1="-80" y1="974.5" x2="718" y2="974.5"/>
	<text transform="matrix(1 0 0 1 -94.3115 976)" display="inline" fill="#6BFFFF" font-family="'Silkscreen'" font-size="8">975</text>
	<line display="inline" fill="none" stroke="#00FFFF" x1="-80" y1="999.5" x2="718" y2="999.5"/>
	<text transform="matrix(1 0 0 1 -98.4155 1001)" display="inline" fill="#00FFFF" font-family="'Silkscreen'" font-size="8">1000</text>
	<line display="inline" fill="none" stroke="#6BFFFF" x1="-80" y1="1024.5" x2="718" y2="1024.5"/>
	<text transform="matrix(1 0 0 1 -98.4155 1026)" display="inline" fill="#6BFFFF" font-family="'Silkscreen'" font-size="8">1025</text>
	<line display="inline" fill="none" stroke="#6BFFFF" x1="-80" y1="1049.5" x2="718" y2="1049.5"/>
	<text transform="matrix(1 0 0 1 -98.4155 1051)" display="inline" fill="#6BFFFF" font-family="'Silkscreen'" font-size="8">1050</text>
	<line display="inline" fill="none" stroke="#6BFFFF" x1="-80" y1="1074.5" x2="718" y2="1074.5"/>
	<text transform="matrix(1 0 0 1 -98.4155 1076)" display="inline" fill="#6BFFFF" font-family="'Silkscreen'" font-size="8">1075</text>
	<line display="inline" fill="none" stroke="#00FFFF" x1="-80" y1="1099.5" x2="718" y2="1099.5"/>
	<text transform="matrix(1 0 0 1 -98.4155 1101)" display="inline" fill="#00FFFF" font-family="'Silkscreen'" font-size="8">1100</text>
	<line display="inline" fill="none" stroke="#6BFFFF" x1="-80" y1="1124.5" x2="718" y2="1124.5"/>
	<text transform="matrix(1 0 0 1 -98.4155 1126)" display="inline" fill="#6BFFFF" font-family="'Silkscreen'" font-size="8">1125</text>
	<line display="inline" fill="none" stroke="#6BFFFF" x1="-80" y1="1149.5" x2="718" y2="1149.5"/>
	<text transform="matrix(1 0 0 1 -98.4155 1151)" display="inline" fill="#6BFFFF" font-family="'Silkscreen'" font-size="8">1150</text>
	<line display="inline" fill="none" stroke="#6BFFFF" x1="-80" y1="1174.5" x2="718" y2="1174.5"/>
	<text transform="matrix(1 0 0 1 -98.4155 1176)" display="inline" fill="#6BFFFF" font-family="'Silkscreen'" font-size="8">1175</text>
	<line display="inline" fill="none" stroke="#00FFFF" x1="-80" y1="1199.5" x2="718" y2="1199.5"/>
	<text transform="matrix(1 0 0 1 -98.4155 1201)" display="inline" fill="#00FFFF" font-family="'Silkscreen'" font-size="8">1200</text>
	<line display="inline" fill="none" stroke="#6BFFFF" x1="-80" y1="1224.5" x2="718" y2="1224.5"/>
	<text transform="matrix(1 0 0 1 -98.4155 1226)" display="inline" fill="#6BFFFF" font-family="'Silkscreen'" font-size="8">1225</text>
	<line display="inline" fill="none" stroke="#6BFFFF" x1="-80" y1="1249.5" x2="718" y2="1249.5"/>
	<text transform="matrix(1 0 0 1 -98.4155 1251)" display="inline" fill="#6BFFFF" font-family="'Silkscreen'" font-size="8">1250</text>
	<line display="inline" fill="none" stroke="#6BFFFF" x1="-80" y1="1274.5" x2="718" y2="1274.5"/>
	<text transform="matrix(1 0 0 1 -98.4155 1276)" display="inline" fill="#6BFFFF" font-family="'Silkscreen'" font-size="8">1275</text>
	<line display="inline" fill="none" stroke="#00FFFF" x1="-80" y1="1299.5" x2="718" y2="1299.5"/>
	<text transform="matrix(1 0 0 1 -98.4155 1301)" display="inline" fill="#00FFFF" font-family="'Silkscreen'" font-size="8">1300</text>
	<line display="inline" fill="none" stroke="#6BFFFF" x1="-80" y1="1324.5" x2="718" y2="1324.5"/>
	<text transform="matrix(1 0 0 1 -98.4155 1326)" display="inline" fill="#6BFFFF" font-family="'Silkscreen'" font-size="8">1325</text>
	<line display="inline" fill="none" stroke="#6BFFFF" x1="-80" y1="1349.5" x2="718" y2="1349.5"/>
	<text transform="matrix(1 0 0 1 -98.4155 1351)" display="inline" fill="#6BFFFF" font-family="'Silkscreen'" font-size="8">1350</text>
	<line display="inline" fill="none" stroke="#6BFFFF" x1="-80" y1="1374.5" x2="718" y2="1374.5"/>
	<text transform="matrix(1 0 0 1 -98.4155 1376)" display="inline" fill="#6BFFFF" font-family="'Silkscreen'" font-size="8">1375</text>
	<line display="inline" fill="none" stroke="#00FFFF" x1="-80" y1="1399.5" x2="718" y2="1399.5"/>
	<text transform="matrix(1 0 0 1 -98.4155 1401)" display="inline" fill="#00FFFF" font-family="'Silkscreen'" font-size="8">1400</text>
	<line display="inline" fill="none" stroke="#6BFFFF" x1="-80" y1="1424.5" x2="718" y2="1424.5"/>
	<text transform="matrix(1 0 0 1 -98.4155 1426)" display="inline" fill="#6BFFFF" font-family="'Silkscreen'" font-size="8">1425</text>
	<line display="inline" fill="none" stroke="#6BFFFF" x1="-80" y1="1449.5" x2="718" y2="1449.5"/>
	<text transform="matrix(1 0 0 1 -98.4155 1451)" display="inline" fill="#6BFFFF" font-family="'Silkscreen'" font-size="8">1450</text>
	<line display="inline" fill="none" stroke="#6BFFFF" x1="-80" y1="1474.5" x2="718" y2="1474.5"/>
	<text transform="matrix(1 0 0 1 -98.4155 1476)" display="inline" fill="#6BFFFF" font-family="'Silkscreen'" font-size="8">1475</text>
	<line display="inline" fill="none" stroke="#00FFFF" x1="-80" y1="1499.5" x2="718" y2="1499.5"/>
	<text transform="matrix(1 0 0 1 -98.4155 1501)" display="inline" fill="#00FFFF" font-family="'Silkscreen'" font-size="8">1500</text>
	<line display="inline" fill="none" stroke="#00FFFF" x1="-0.5" y1="-80" x2="-0.5" y2="1500"/>
	<text transform="matrix(1 0 0 1 23 -83.6201)" display="inline" fill="#6BFFFF" font-family="'Silkscreen'" font-size="8">25</text>
	<line display="inline" fill="none" stroke="#6BFFFF" x1="24.5" y1="-80" x2="24.5" y2="1500"/>
	<text transform="matrix(1 0 0 1 48 -83.6201)" display="inline" fill="#6BFFFF" font-family="'Silkscreen'" font-size="8">50</text>
	<line display="inline" fill="none" stroke="#6BFFFF" x1="49.5" y1="-80" x2="49.5" y2="1500"/>
	<text transform="matrix(1 0 0 1 73 -83.6201)" display="inline" fill="#6BFFFF" font-family="'Silkscreen'" font-size="8">75</text>
	<line display="inline" fill="none" stroke="#6BFFFF" x1="74.5" y1="-80" x2="74.5" y2="1500"/>
	<text transform="matrix(1 0 0 1 98 -83.6201)" display="inline" fill="#00FFFF" font-family="'Silkscreen'" font-size="8">100</text>
	<line display="inline" fill="none" stroke="#00FFFF" x1="99.5" y1="-79" x2="99.5" y2="1501"/>
	<text transform="matrix(1 0 0 1 123 -83.6201)" display="inline" fill="#6BFFFF" font-family="'Silkscreen'" font-size="8">125</text>
	<line display="inline" fill="none" stroke="#6BFFFF" x1="124.5" y1="-80" x2="124.5" y2="1500"/>
	<text transform="matrix(1 0 0 1 148 -83.6201)" display="inline" fill="#6BFFFF" font-family="'Silkscreen'" font-size="8">150</text>
	<line display="inline" fill="none" stroke="#6BFFFF" x1="149.5" y1="-80" x2="149.5" y2="1500"/>
	<text transform="matrix(1 0 0 1 173 -83.6201)" display="inline" fill="#6BFFFF" font-family="'Silkscreen'" font-size="8">175</text>
	<line display="inline" fill="none" stroke="#6BFFFF" x1="174.5" y1="-80" x2="174.5" y2="1500"/>
	<text transform="matrix(1 0 0 1 198 -83.6201)" display="inline" fill="#00FFFF" font-family="'Silkscreen'" font-size="8">200</text>
	<line display="inline" fill="none" stroke="#00FFFF" x1="199.5" y1="-80" x2="199.5" y2="1500"/>
	<text transform="matrix(1 0 0 1 223 -83.6201)" display="inline" fill="#6BFFFF" font-family="'Silkscreen'" font-size="8">225</text>
	<line display="inline" fill="none" stroke="#6BFFFF" x1="224.5" y1="-80" x2="224.5" y2="1500"/>
	<text transform="matrix(1 0 0 1 248 -83.6201)" display="inline" fill="#6BFFFF" font-family="'Silkscreen'" font-size="8">250</text>
	<line display="inline" fill="none" stroke="#6BFFFF" x1="249.5" y1="-80" x2="249.5" y2="1500"/>
	<text transform="matrix(1 0 0 1 273 -83.6201)" display="inline" fill="#6BFFFF" font-family="'Silkscreen'" font-size="8">275</text>
	<line display="inline" fill="none" stroke="#6BFFFF" x1="274.5" y1="-80" x2="274.5" y2="1500"/>
	<text transform="matrix(1 0 0 1 298 -83.6201)" display="inline" fill="#00FFFF" font-family="'Silkscreen'" font-size="8">300</text>
	<line display="inline" fill="none" stroke="#00FFFF" x1="299.5" y1="-80" x2="299.5" y2="1500"/>
	<text transform="matrix(1 0 0 1 323 -83.6201)" display="inline" fill="#6BFFFF" font-family="'Silkscreen'" font-size="8">325</text>
	<line display="inline" fill="none" stroke="#6BFFFF" x1="324.5" y1="-80" x2="324.5" y2="1500"/>
	<text transform="matrix(1 0 0 1 348 -83.6201)" display="inline" fill="#6BFFFF" font-family="'Silkscreen'" font-size="8">350</text>
	<line display="inline" fill="none" stroke="#6BFFFF" x1="349.5" y1="-80" x2="349.5" y2="1500"/>
	<text transform="matrix(1 0 0 1 373 -83.6201)" display="inline" fill="#6BFFFF" font-family="'Silkscreen'" font-size="8">375</text>
	<line display="inline" fill="none" stroke="#6BFFFF" x1="374.5" y1="-80" x2="374.5" y2="1500"/>
	<rect x="375" y="124" display="inline" opacity="0.15" fill="#FF00FF" width="149" height="100"/>
</g>
</svg>
