<svg xmlns="http://www.w3.org/2000/svg" width="250" height="200" viewBox="0 0 250 200"><g><g fill="#fff"><path d="M100 28h8v2h-8zM103 25h2v8h-2z"/></g><path fill="#fff" d="M84.9 1.416L83.483 0 79.95 3.536 76.413 0 75 1.416l3.535 3.535L75 8.487 76.414 9.9l3.535-3.535L83.483 9.9 84.9 8.486 81.363 4.95zM82 26.43l-.93-.93-2.32 2.32-2.322-2.32-.928.93 2.32 2.32-2.32 2.323.928.927 2.32-2.32L81.07 32l.93-.927-2.32-2.322z"/><g fill="#fff"><path d="M100 4h10v2h-10zM104 0h2v10h-2z"/></g><circle stroke="#E0F2BF" stroke-width="2" stroke-miterlimit="10" cx="-180" cy="87" r="9" fill="none"/><path fill="#E0F2BF" d="M-180 85.375c.896 0 1.625.73 1.625 1.625s-.73 1.625-1.625 1.625-1.625-.73-1.625-1.625.73-1.625 1.625-1.625m0-1c-1.45 0-2.625 1.175-2.625 2.625s1.175 2.625 2.625 2.625 2.625-1.175 2.625-2.625-1.175-2.625-2.625-2.625z"/><path stroke="#E0F2BF" stroke-width="2" stroke-miterlimit="10" fill="none" d="M-180 75v7.5M-180 91.5V99M-168 87h-7.5M-184.5 87h-7.5"/><path stroke="#fff" stroke-width="2" stroke-miterlimit="10" fill="none" d="M1 53l10 10L1 73"/><path stroke="#666" stroke-width="2" stroke-miterlimit="10" fill="none" d="M1 78l10 10L1 98"/><path stroke="#85C900" stroke-width="2" stroke-miterlimit="10" fill="none" d="M1 103l10 10-10 10"/><path stroke="#666" stroke-width="2" stroke-miterlimit="10" fill="none" d="M26 63l5 5-5 5"/><path stroke="#fff" stroke-width="2" stroke-miterlimit="10" fill="none" d="M26 88l5 5-5 5"/><path stroke="#85C900" stroke-width="2" stroke-miterlimit="10" fill="none" d="M26 113l5 5-5 5"/><path stroke="#fff" stroke-width="2" stroke-miterlimit="10" fill="none" d="M26 51L1 26 26 1M60 .5l-7 7-3-3M57 25.5l-4.9 4.9-2.1-2.1"/><path d="M0 175h21v4H0z"/><path fill="#FE0019" d="M0 179h21v4H0z"/><path fill="#FFDF00" d="M0 183h21v4H0z"/><path fill="#15008B" d="M25 175h21v12H25z"/><path fill="#fff" d="M46 179h-4.737L46 176.334V175h-2.446L37 178.64V175h-3v3.64L27.336 175H25v1.334L29.626 179H25v4h4.627L25 185.602V187h2.336L34 183.3v3.7h3v-3.702L43.554 187H46v-1.398L41.262 183H46z"/><path fill="#FE0019" d="M36.49 175v4.775H46v2.386h-9.51V187H34.4v-4.84H25v-2.385h9.4V175zM31.963 178.978h-1.557L25 175.89V175zM45.89 175l-6.963 3.978H37.37L44.332 175zM46 186.102L40.483 183h-1.556L46 186.992zM31.963 183L25 186.947V187h1.465l7.056-4z"/><path fill="#00B542" d="M50 175h7v12h-7z"/><path fill="#fff" d="M57 175h7v12h-7z"/><path fill="#FE0019" d="M64 175h7v12h-7z"/><path fill="#15008B" d="M75 175h7v12h-7z"/><path fill="#fff" d="M82 175h7v12h-7z"/><path fill="#FE0019" d="M89 175h7v12h-7z"/><path fill="#fff" d="M153 2h-3V0h4l1 2h17l-2 9h-15l-2-9zm4.75 10c-.966 0-1.75.784-1.75 1.75s.784 1.75 1.75 1.75 1.75-.784 1.75-1.75-.784-1.75-1.75-1.75zm9.5 0c-.966 0-1.75.784-1.75 1.75s.784 1.75 1.75 1.75 1.75-.784 1.75-1.75-.784-1.75-1.75-1.75zM160 7h-3.167l.334 2H160V7zm0-3h-3.667l.334 2H160V4zm4 3h-3v2h3V7zm0-3h-3v2h3V4zm4.167 3H165v2h2.833l.334-2zm.5-3H165v2h3.333l.334-2z"/><path fill="#85C900" d="M-58 133h10l1-6h-10l-1-2h-3v2h2z"/><circle fill="#85C900" cx="-55.5" cy="135.5" r="1.5"/><circle fill="#85C900" cx="-49.5" cy="135.5" r="1.5"/><path fill="#85C900" d="M178 2h-3V0h4l1 2h17l-2 9h-15l-2-9zm4.75 10c-.966 0-1.75.784-1.75 1.75s.784 1.75 1.75 1.75 1.75-.784 1.75-1.75-.784-1.75-1.75-1.75zm9.5 0c-.966 0-1.75.784-1.75 1.75s.784 1.75 1.75 1.75 1.75-.784 1.75-1.75-.784-1.75-1.75-1.75zM185 7h-3.167l.334 2H185V7zm0-3h-3.667l.334 2H185V4zm4 3h-3v2h3V7zm0-3h-3v2h3V4zm4.167 3H190v2h2.833l.334-2zm.5-3H190v2h3.333l.334-2z"/><path fill="#fff" d="M159 31h7l1-4h-8l-.643-2H156v1h1z"/><circle fill="#fff" cx="160.25" cy="33.25" r="1.25"/><circle fill="#fff" cx="164.75" cy="33.25" r="1.25"/><path stroke="#fff" stroke-miterlimit="10" fill="none" d="M154 29.5h-4"/><path fill="#fff" d="M153 27.755l3.022 1.745L153 31.245z"/><path fill="#85C900" d="M184 31h7l1-4h-8l-.643-2H181v1h1z"/><circle fill="#85C900" cx="185.25" cy="33.25" r="1.25"/><circle fill="#85C900" cx="189.75" cy="33.25" r="1.25"/><path stroke="#85C900" stroke-miterlimit="10" fill="none" d="M179 29.5h-4"/><path fill="#85C900" d="M178 27.755l3.022 1.745L178 31.245z"/><path fill="#fff" d="M141.133 8.684c.13.13.194.282.194.46 0 .176-.065.33-.194.458-.13.13-.282.194-.46.194h-2.285c0 1.163-.228 2.15-.684 2.96l2.123 2.13c.13.13.194.284.194.46s-.063.33-.193.46c-.123.128-.275.193-.46.193-.183 0-.335-.066-.457-.195l-2.02-2.01c-.035.034-.086.078-.154.132-.068.055-.21.152-.43.29-.217.14-.438.265-.662.374-.225.11-.503.21-.837.296-.333.09-.663.133-.99.133V5.877h-1.306v9.143c-.346 0-.69-.044-1.035-.137-.343-.09-.64-.204-.887-.336-.25-.133-.473-.266-.673-.398-.2-.134-.35-.244-.444-.333l-.152-.143-1.867 2.112c-.135.143-.3.214-.49.214-.163 0-.31-.054-.438-.163-.13-.123-.2-.274-.21-.454-.01-.18.043-.338.16-.474l2.06-2.317c-.394-.776-.59-1.708-.59-2.796h-2.287c-.177 0-.33-.065-.458-.194-.132-.13-.197-.283-.197-.46 0-.177.065-.33.194-.46.13-.128.282-.193.458-.193h2.286v-3l-1.765-1.765c-.13-.13-.193-.283-.193-.46s.064-.33.193-.458c.13-.13.283-.193.46-.193s.33.064.458.193l1.766 1.765h8.612l1.766-1.765c.13-.13.282-.193.46-.193.175 0 .33.064.457.193.13.13.195.283.195.46s-.065.33-.194.458l-1.764 1.765v3h2.286c.18 0 .33.065.46.194zm-4.704-5.418h-6.532c0-.905.318-1.675.954-2.312S132.258 0 133.164 0c.904 0 1.675.318 2.31.954.636.636.955 1.407.955 2.312zM135.583 30.428c.08.08.12.176.12.287 0 .11-.04.207-.12.287-.08.08-.176.12-.287.12h-1.43c0 .728-.142 1.345-.426 1.85l1.327 1.334c.08.08.12.177.12.287 0 .11-.04.206-.12.287-.077.08-.172.12-.288.12-.116 0-.21-.04-.288-.12l-1.263-1.257c-.022.02-.054.05-.096.083-.042.034-.132.095-.268.182s-.274.165-.415.233-.313.13-.522.186c-.208.056-.415.083-.62.083v-5.715h-.815v5.714c-.217 0-.433-.03-.647-.087-.214-.057-.4-.127-.555-.21s-.294-.166-.42-.25c-.125-.082-.218-.15-.277-.207l-.096-.09-1.167 1.32c-.085.09-.188.135-.306.135-.102 0-.194-.033-.274-.1-.08-.078-.125-.172-.13-.285-.006-.113.026-.21.1-.296l1.287-1.45c-.247-.484-.37-1.066-.37-1.747h-1.428c-.112 0-.207-.04-.288-.12-.08-.082-.122-.177-.122-.288 0-.11.04-.206.122-.287.08-.08.176-.122.287-.122h1.427V28.43l-1.103-1.102c-.08-.08-.12-.177-.12-.287s.04-.205.12-.286c.08-.08.177-.12.287-.12s.207.04.288.12l1.103 1.103h5.384l1.104-1.103c.08-.08.176-.12.287-.12.11 0 .206.04.287.12.08.08.12.177.12.287s-.04.207-.12.288l-1.104 1.103v1.876h1.43c.11 0 .204.04.285.122zm-2.94-3.387h-4.082c0-.564.2-1.046.598-1.444.397-.397.88-.596 1.444-.596s1.047.2 1.444.596c.398.398.597.88.597 1.445z"/><circle stroke="#85C900" stroke-miterlimit="10" cx="299" cy="10.5" r="7.5" fill="none"/><path fill="#85C900" d="M299 8.5c1.103 0 2 .897 2 2s-.897 2-2 2-2-.897-2-2 .897-2 2-2m0-1c-1.658 0-3 1.344-3 3 0 1.658 1.342 3 3 3s3-1.342 3-3c0-1.656-1.342-3-3-3z"/><path stroke="#85C900" stroke-miterlimit="10" fill="none" d="M299 .5v6.25M299 14.25v6.25M309 10.5h-6.25M295.25 10.5H289"/><circle stroke="#85C900" stroke-width="2" stroke-miterlimit="10" cx="210" cy="10" r="7.5" fill="none"/><path fill="#85C900" d="M210 9c.55 0 1 .45 1 1s-.45 1-1 1-1-.45-1-1 .45-1 1-1m0-2c-1.658 0-3 1.344-3 3 0 1.658 1.342 3 3 3s3-1.342 3-3c0-1.656-1.342-3-3-3z"/><path stroke="#85C900" stroke-width="2" stroke-miterlimit="10" fill="none" d="M210 0v6.25M210 13.75V20M220 10h-6.25M206.25 10H200"/><ellipse fill="#666" cx="70" cy="147.623" rx="4.518" ry=".892"/><path fill="#85C900" d="M70 103.86c8.9 0 16.14 7.24 16.14 16.14S78.9 136.143 70 136.143s-16.14-7.24-16.14-16.14S61.1 103.86 70 103.86M90 120c0-11.045-8.955-20-20-20s-20 8.955-20 20c0 5.737 2.418 10.906 6.287 14.553h-.005L70 147.623l13.72-13.07h-.007C87.583 130.906 90 125.737 90 120zM70 128.583V125.1h2.62l-.624-1.99H65.91l-.624 1.99h2.226v3.482H58.06V125.1h2.12l4.007-13.433h-1.153v-3.483H74.37l5.255 16.916h2.314v3.482H70zm.898-9.454l-1.96-6.414-1.93 6.413h3.89z"/><g fill="#B3B3B3"><ellipse cx="120" cy="147.623" rx="4.518" ry=".892"/><path d="M120 103.86c8.9 0 16.14 7.24 16.14 16.14s-7.24 16.143-16.14 16.143-16.14-7.24-16.14-16.142 7.24-16.14 16.14-16.14M140 120c0-11.045-8.955-20-20-20s-20 8.955-20 20c0 5.737 2.418 10.906 6.287 14.553h-.006l13.72 13.07 13.72-13.07h-.007c3.87-3.647 6.287-8.816 6.287-14.552zM120 128.582V125.1h2.62l-.624-1.99h-6.087l-.623 1.99h2.225v3.482h-9.45V125.1h2.118l4.008-13.433h-1.152v-3.483h11.336l5.256 16.916h2.314v3.482H120zm.898-9.453l-1.96-6.413-1.93 6.412h3.89z"/></g></g></svg>