<svg xmlns="http://www.w3.org/2000/svg" width="243" height="96" viewBox="0 0 243 96"><ellipse fill="#666" cx="77.018" cy="93.97" rx="8.915" ry="1.76"/><path fill="#666" d="M0 56.794V49.12h2.58V35.118H.06v-7.616h11.013l1.76 3.75c1.52-2.813 3.045-5.214 9.08-5.214v10.544c-5.272 0-8.26 1.348-8.26 6.503v6.035h2.93v7.675H0zm52.706-4.043c-4.336 3.75-9.02 5.1-15.115 5.1-7.262 0-15.462-4.63-15.462-15.878 0-9.61 6.912-15.29 15.76-15.29 6.97 0 12.3 3.573 14 8.493.703 2.052 1.348 6.563.117 9.902H33.552c.35 1.582 1.112 4.805 6.032 4.805 1.992 0 5.04-.176 8.202-2.812l4.92 5.68zM42.57 39.28c-.057-2.228-.583-4.69-4.333-4.69-3.573 0-4.393 3.224-4.51 4.69h8.844zm78.672 1.464c-.117-2.812-.997-6.153-3.69-6.153-3.457 0-5.156 3.69-5.156 7.5 0 3.807 2.285 6.855 6.035 6.912 3.105.06 5.156-1.23 7.09-3.338l5.154 5.975c-2.752 2.987-8.025 5.977-14.354 5.977-8.61 0-16.11-5.216-16.11-15.644 0-10.37 6.915-14.997 14.413-14.997 3.982 0 6.326 2.167 7.32 3.338l.998-2.812h6.913v13.24h-8.61zm13.43-13.24V22.11l10.782-3.457V27.5h5.566v7.616h-5.566v10.428c0 1.992-.41 4.686 1.875 4.686.76 0 2.576-.525 3.69-.994v7.498c-1.76.702-5.74 1.113-7.09 1.113-8.79 0-9.08-4.805-9.258-12.303V35.118h-3.163v-7.616h3.163zm32.04 0v14.12c0 5.037.764 7.38 3.164 7.38 2.05 0 3.69-1.815 3.69-4.452v-9.315H169.7V27.5h15.174V49h2.87v7.794h-11.073l-1.58-3.69c-1.29 1.464-3.34 4.512-8.318 4.512-8.847 0-11.776-4.57-11.776-14.295v-8.084h-2.46v-7.734h14.175zm23.25 29.292V49.12h2.58V35.118h-2.52v-7.616h11.013l1.76 3.75c1.52-2.813 3.044-5.214 9.08-5.214v10.544c-5.273 0-8.262 1.348-8.262 6.503v6.035h2.93v7.675h-16.58zm52.707-4.043c-4.337 3.75-9.022 5.1-15.116 5.1-7.263 0-15.464-4.63-15.464-15.878 0-9.61 6.913-15.29 15.76-15.29 6.97 0 12.3 3.573 14 8.493.704 2.052 1.348 6.563.115 9.902h-18.45c.35 1.582 1.112 4.805 6.03 4.805 1.994 0 5.04-.176 8.202-2.812l4.922 5.68zM232.533 39.28c-.06-2.228-.585-4.69-4.334-4.69-3.573 0-4.396 3.224-4.513 4.69h8.847z"/><g fill="#85C900"><path d="M48.387 25.525c5.18-10.593 16.066-17.91 28.63-17.91 12.48 0 23.3 7.22 28.522 17.7 2.296-1.203 4.84-1.905 7.433-2.11C106.776 9.526 93.013 0 77.017 0 61.073 0 47.347 9.463 41.12 23.074c2.678.376 5.136 1.22 7.267 2.45zM110.292 61.085c-2.6-.698-4.922-2.056-6.888-3.595-5.73 8.46-15.42 13.93-26.388 13.93-10.483 0-19.798-5.147-25.605-12.987-2.246 1.306-4.686 2.566-7.39 3.09C45.72 64.114 47.71 67 49.957 69h-.01l27.068 25.79L104.088 69h-.013c2.367-3 4.458-5.162 6.217-7.915zM77.017 56.4v-6.87h5.17l-1.23-3.928H68.944l-1.23 3.927h4.394v6.87h-18.65v-6.87h4.182l7.908-26.507h-2.273V16.15h22.37L96.01 49.53h4.566v6.87h-23.56zm1.772-18.652L74.92 25.092l-3.81 12.656h7.677zM129.062 63.664v.95h-4.128v3.005h3.528v.946h-3.528v3.696h-1.17v-8.6h5.298zM131.936 72.262h-1.164v-8.6h1.164v8.6zM135.07 63.703c.05.027.107.08.17.16l4.98 6.48c-.012-.105-.02-.206-.023-.305-.004-.098-.006-.192-.006-.284v-6.09h1.02v8.598h-.587c-.092 0-.17-.017-.23-.048-.062-.032-.123-.086-.184-.162l-4.975-6.475c.008.1.014.2.018.295s.007.184.007.264v6.126h-1.02v-8.6h.6c.103.002.18.015.23.04zM150.764 67.966c0 .645-.103 1.23-.306 1.758-.204.528-.492.98-.864 1.355-.372.376-.818.667-1.338.872-.52.207-1.097.31-1.73.31h-3.215v-8.6h3.217c.632 0 1.208.105 1.73.31.52.207.965.5 1.337.877s.66.83.864 1.358c.203.528.306 1.114.306 1.758zm-1.195 0c0-.528-.072-1-.217-1.416-.144-.416-.348-.768-.612-1.057-.263-.287-.583-.508-.96-.66-.375-.15-.793-.227-1.253-.227h-2.046v6.713h2.047c.46 0 .878-.077 1.254-.23s.697-.37.96-.656c.266-.285.47-.637.613-1.053.145-.414.216-.886.216-1.414zM157.976 68.842v3.42h-1.158v-3.42l-3.15-5.18h1.02c.105 0 .187.028.247.08.06.052.11.116.155.19l1.97 3.344c.078.14.145.27.2.396.054.124.103.245.146.366.044-.125.092-.248.144-.373.053-.123.118-.254.198-.39l1.962-3.342c.036-.063.085-.125.147-.183.062-.06.143-.088.243-.088h1.03l-3.154 5.18zM169.718 67.966c0 .645-.103 1.234-.307 1.773-.203.536-.49 1-.862 1.388-.372.388-.82.69-1.342.902-.52.215-1.1.32-1.73.32s-1.208-.105-1.73-.32c-.52-.213-.965-.515-1.337-.902-.373-.39-.66-.852-.864-1.39-.204-.538-.307-1.128-.307-1.772s.102-1.234.306-1.773c.203-.537.49-1.002.863-1.392s.817-.69 1.337-.908c.52-.216 1.097-.324 1.73-.324s1.208.108 1.73.324c.52.217.97.52 1.34.91s.66.853.864 1.39c.205.54.308 1.13.308 1.774zm-1.195 0c0-.528-.072-1.002-.216-1.422-.145-.42-.348-.775-.612-1.065-.264-.29-.584-.514-.96-.67s-.796-.234-1.26-.234c-.46 0-.878.078-1.254.234s-.696.38-.962.67c-.267.29-.472.645-.615 1.064-.145.42-.216.894-.216 1.422 0 .527.07 1 .216 1.42.144.417.35.77.615 1.06.266.292.587.514.963.667.377.154.795.23 1.255.23.464 0 .884-.076 1.26-.23.376-.153.696-.375.96-.666.265-.29.468-.644.612-1.062.144-.418.216-.89.216-1.42zM174.65 71.338c.355 0 .673-.06.953-.18.28-.12.518-.288.71-.505.195-.216.343-.474.445-.773.102-.3.153-.63.153-.99v-5.227h1.158v5.227c0 .496-.08.956-.236 1.38-.158.425-.385.79-.68 1.1-.293.312-.65.555-1.075.73-.425.177-.9.265-1.43.265-.526 0-1.003-.088-1.427-.265-.424-.176-.784-.42-1.08-.73-.296-.31-.523-.675-.68-1.1-.16-.424-.238-.884-.238-1.38v-5.227h1.158v5.22c0 .36.05.69.153.99.102.3.25.56.443.774.194.217.433.385.714.508.285.122.604.183.96.183zM181.346 68.674v3.588h-1.158v-8.6h2.43c.544 0 1.015.057 1.41.167.396.108.723.268.98.476.26.208.45.46.573.753s.188.622.188.986c0 .304-.048.588-.145.852-.096.264-.234.502-.417.71-.182.212-.403.39-.666.538-.262.148-.56.26-.89.336.143.084.27.207.383.366l2.508 3.414h-1.03c-.212 0-.368-.082-.47-.246l-2.23-3.07c-.068-.098-.143-.167-.222-.208-.08-.043-.2-.063-.36-.063h-.882zm0-.846h1.218c.34 0 .64-.04.896-.123.26-.082.475-.197.648-.348s.305-.328.393-.537c.09-.207.134-.438.134-.69 0-.51-.17-.897-.508-1.157-.338-.26-.84-.39-1.51-.39h-1.27v3.245zM197.186 72.262h-.9c-.104 0-.188-.026-.252-.078-.063-.052-.112-.118-.144-.198l-.805-2.076h-3.857l-.804 2.076c-.028.072-.076.137-.145.192s-.153.084-.253.084h-.9l3.438-8.6h1.182l3.44 8.6zm-5.634-3.192h3.21l-1.35-3.498c-.09-.215-.175-.485-.26-.81-.043.164-.086.315-.128.453s-.083.26-.123.362l-1.348 3.493zM204.078 70.486c.064 0 .122.026.175.078l.456.498c-.354.408-.78.727-1.282.954s-1.107.343-1.815.343c-.62 0-1.182-.108-1.686-.323-.504-.213-.935-.514-1.29-.9-.356-.385-.632-.848-.828-1.39-.197-.538-.295-1.132-.295-1.78s.104-1.242.315-1.782c.21-.54.505-1.004.885-1.392.38-.39.835-.69 1.365-.903.53-.214 1.114-.32 1.755-.32.632 0 1.177.098 1.635.294.458.195.865.46 1.22.797l-.377.536c-.028.04-.06.072-.096.098-.036.027-.088.04-.156.04-.05 0-.106-.02-.164-.058-.058-.037-.127-.084-.207-.14s-.175-.117-.283-.18c-.107-.065-.235-.126-.384-.18-.147-.058-.32-.105-.516-.143-.196-.038-.422-.058-.68-.058-.46 0-.88.08-1.262.237-.382.158-.71.384-.987.675-.275.293-.49.648-.645 1.068s-.23.89-.23 1.41c0 .536.076 1.014.23 1.434s.364.774.63 1.064.58.51.945.663c.363.152.756.23 1.176.23.256 0 .486-.017.69-.047.203-.03.393-.077.566-.14s.336-.147.486-.244c.15-.098.3-.215.453-.352.068-.058.135-.088.198-.088zM212.096 63.664v.98h-2.778v7.62h-1.164v-7.62h-2.79v-.98h6.732zM214.7 72.262h-1.165v-8.6h1.164v8.6zM216.007 63.664h.93c.104 0 .188.027.253.078.063.053.11.12.144.2l2.43 6.064c.057.136.107.284.153.444s.09.326.135.498c.036-.172.075-.338.117-.498s.09-.31.146-.444l2.418-6.065c.027-.067.075-.13.144-.188.068-.06.152-.088.252-.088h.937l-3.505 8.6h-1.05l-3.505-8.6zM226.543 72.262h-1.164v-8.6h1.163v8.6zM234.703 63.664v.98h-2.778v7.62h-1.164v-7.62h-2.79v-.98h6.733zM239.24 68.842v3.42h-1.16v-3.42l-3.15-5.18h1.022c.104 0 .186.028.246.08.06.052.11.116.155.19l1.97 3.344c.078.14.145.27.2.396.054.124.103.245.146.366.043-.125.09-.248.143-.373.053-.123.118-.254.198-.39l1.963-3.342c.036-.063.085-.125.147-.183.062-.06.143-.088.243-.088h1.03l-3.154 5.18z"/></g><path fill="#85C900" d="M43 9c0 4.95-4.05 9-9 9H9c-4.95 0-9-4.05-9-9s4.05-9 9-9h25c4.95 0 9 4.05 9 9z"/><g fill="#fff"><path d="M8.33 12.714V4.7h2.95c.553 0 1.024.052 1.413.154s.706.248.952.435.424.413.536.68c.113.27.168.568.168.897 0 .18-.025.353-.077.52s-.13.324-.24.47-.252.28-.424.4-.38.222-.622.31c.528.128.918.336 1.17.624.254.29.38.658.38 1.11 0 .34-.066.657-.198.95s-.326.55-.58.768c-.255.218-.57.39-.943.512-.374.123-.8.184-1.282.184h-3.2zm1.86-4.642h.968c.206 0 .39-.015.556-.044s.305-.08.42-.154c.116-.073.205-.174.265-.303.06-.127.09-.29.09-.483 0-.19-.024-.35-.07-.476-.05-.125-.122-.228-.22-.305-.1-.077-.226-.132-.377-.165-.152-.033-.333-.05-.542-.05h-1.09v1.982zm0 1.243v1.997h1.31c.245 0 .445-.03.6-.094.157-.062.28-.143.367-.242.088-.1.148-.21.182-.336.032-.125.048-.25.048-.38 0-.145-.02-.277-.058-.395-.04-.117-.104-.216-.198-.297-.094-.08-.217-.143-.372-.187-.154-.043-.348-.065-.583-.065H10.19zM20.706 4.7v1.43h-3.29V8h2.52v1.375h-2.52v1.908h3.29v1.43h-5.16V4.7h5.16zM27.58 4.7v1.474h-2.254v6.54h-1.86v-6.54h-2.254V4.7h6.37zM34.93 12.714h-1.442c-.16 0-.294-.038-.398-.113s-.177-.17-.217-.288l-.473-1.397h-3.047l-.473 1.397c-.037.103-.108.195-.214.278s-.236.124-.39.124h-1.453l3.1-8.014h1.903l3.103 8.014zM29.78 9.65h2.19l-.737-2.194-.167-.493c-.066-.188-.128-.393-.19-.612-.06.225-.12.432-.183.622-.062.19-.12.356-.176.495L29.78 9.65z"/></g></svg>