<?xml version="1.0" encoding="utf-8"?>
<!-- Generator: Adobe Illustrator 16.0.0, SVG Export Plug-In . SVG Version: 6.00 Build 0)  -->
<!DOCTYPE svg PUBLIC "-//W3C//DTD SVG 1.1 Tiny//EN" "http://www.w3.org/Graphics/SVG/1.1/DTD/svg11-tiny.dtd">
<svg version="1.1" baseProfile="tiny" id="Layer_1" xmlns="http://www.w3.org/2000/svg" xmlns:xlink="http://www.w3.org/1999/xlink"
	 x="0px" y="0px" width="150px" height="150px" viewBox="0 0 150 150" xml:space="preserve">
<g>
	<g>
		<path fill="#D9D9D9" d="M89.619,77.748c0,2.717-2.204,4.923-4.922,4.923c-1.201,0-2.289-0.448-3.143-1.164l-5.586,5.584
			c2.288,2.139,5.352,3.457,8.729,3.457c7.069,0,12.801-5.73,12.801-12.8c0-3.379-1.318-6.441-3.457-8.729l-5.586,5.586
			C89.171,75.46,89.619,76.547,89.619,77.748z"/>
		<path fill="#D9D9D9" d="M115.912,47.582L99.829,63.449c3.562,3.714,5.655,8.745,5.655,14.299c0,11.42-9.311,20.676-20.732,20.676
			c-5.554,0-10.612-2.836-14.327-6.397L54.79,107h58.462c4.351,0,8.748-2.254,8.748-6.606V55.101
			C122,51.528,119.17,48.547,115.912,47.582z"/>
		<path fill="#D9D9D9" d="M29.861,106.585L65.22,71.128c2.059-6.089,6.817-10.896,12.906-12.956l19.344-19.369l-1.674-1.867
			C94.634,35.775,93.105,35,91.59,35H77.824c-1.515,0-3.052-0.337-4.195,0.824L63.585,45H57v-2.207C57,40.884,54.607,38,52.697,38
			H39.896C37.985,38,37,40.884,37,42.793V45h-2.519C30.128,45,27,50.75,27,55.101v45.293C27,102.922,28.013,105.145,29.861,106.585z
			 M40.388,57h11.816c2.167,0,3.938,1.834,3.938,4c0,2.165-1.771,4-3.938,4H40.388c-2.167,0-3.938-1.835-3.938-4
			C36.45,58.834,38.222,57,40.388,57z"/>
	</g>
	<path fill="#D9D9D9" d="M75,0C33.645,0,0,33.645,0,75c0,41.355,33.645,75,75,75c41.355,0,75-33.645,75-75
		C150,33.645,116.355,0,75,0z M75,12.64c14.833,0,28.467,5.214,39.182,13.895l-87.647,87.647C17.854,103.467,12.64,89.833,12.64,75
		C12.64,40.614,40.614,12.64,75,12.64z M75,137.36c-15.009,0-28.795-5.332-39.569-14.198l87.731-87.731
		C132.028,46.205,137.36,59.991,137.36,75C137.36,109.385,109.385,137.36,75,137.36z"/>
</g>
</svg>
