<svg baseProfile="tiny" xmlns="http://www.w3.org/2000/svg" width="150" height="150" viewBox="0 0 150 150"><g fill="#D9D9D9"><path d="M89.62 77.748c0 2.717-2.205 4.923-4.923 4.923-1.2 0-2.29-.447-3.143-1.163l-5.586 5.584c2.288 2.14 5.352 3.458 8.73 3.458 7.068 0 12.8-5.73 12.8-12.8 0-3.38-1.318-6.44-3.457-8.73l-5.585 5.587c.716.855 1.164 1.942 1.164 3.143zM115.912 47.582L99.83 63.45c3.56 3.713 5.654 8.744 5.654 14.298 0 11.42-9.31 20.676-20.732 20.676-5.554 0-10.612-2.836-14.327-6.397L54.79 107h58.462c4.35 0 8.748-2.254 8.748-6.606V55.1c0-3.572-2.83-6.553-6.088-7.518zM29.86 106.585l35.36-35.457c2.06-6.09 6.817-10.896 12.906-12.956l19.344-19.37-1.674-1.866C94.634 35.776 93.106 35 91.59 35H77.824c-1.515 0-3.052-.337-4.195.824L63.584 45H57v-2.207C57 40.883 54.607 38 52.697 38h-12.8C37.984 38 37 40.884 37 42.793V45h-2.52C30.13 45 27 50.75 27 55.1v45.294c0 2.528 1.013 4.75 2.86 6.19zM40.39 57h11.816c2.167 0 3.938 1.834 3.938 4 0 2.165-1.77 4-3.938 4H40.388c-2.167 0-3.938-1.835-3.938-4 0-2.166 1.772-4 3.938-4zM75 0C33.645 0 0 33.645 0 75s33.645 75 75 75 75-33.645 75-75S116.355 0 75 0zm0 12.64c14.833 0 28.467 5.214 39.182 13.895l-87.647 87.647C17.855 103.467 12.64 89.832 12.64 75c0-34.386 27.974-62.36 62.36-62.36zm0 124.72c-15.01 0-28.795-5.332-39.57-14.198l87.732-87.73C132.028 46.204 137.36 59.99 137.36 75c0 34.385-27.975 62.36-62.36 62.36z"/></g></svg>