<?xml version="1.0" encoding="utf-8"?>
<!-- Generator: Adobe Illustrator 16.0.0, SVG Export Plug-In . SVG Version: 6.00 Build 0)  -->
<!DOCTYPE svg PUBLIC "-//W3C//DTD SVG 1.1//EN" "http://www.w3.org/Graphics/SVG/1.1/DTD/svg11.dtd">
<svg version="1.1" xmlns="http://www.w3.org/2000/svg" xmlns:xlink="http://www.w3.org/1999/xlink" x="0px" y="0px" width="250px"
	 height="200px" viewBox="0 0 250 200" enable-background="new 0 0 250 200" xml:space="preserve">
<g id="BACKGROUND" display="none">
	<rect display="inline" fill="#808080" width="250" height="1350"/>
</g>
<g id="ELEMENTS">
	<g>
		<rect x="100" y="28" fill="#FFFFFF" width="8" height="2"/>
		<rect x="103" y="25" fill="#FFFFFF" width="2" height="8"/>
	</g>
	<polygon fill="#FFFFFF" points="84.899,1.416 83.484,0 79.949,3.536 76.414,0 75,1.416 78.535,4.951 75,8.486 76.414,9.9 
		79.949,6.365 83.484,9.9 84.899,8.486 81.364,4.951 	"/>
	<polygon fill="#FFFFFF" points="82,26.431 81.07,25.5 78.749,27.821 76.428,25.5 75.5,26.431 77.821,28.751 75.5,31.073 76.428,32 
		78.749,29.679 81.07,32 82,31.073 79.679,28.751 	"/>
	<g>
		<rect x="100" y="4" fill="#FFFFFF" width="10" height="2"/>
		<rect x="104" fill="#FFFFFF" width="2" height="10"/>
	</g>
	<g>
		<circle fill="none" stroke="#D5D5D5" stroke-width="2" stroke-miterlimit="10" cx="-180" cy="87" r="9"/>
		<g>
			<path fill="#D5D5D5" d="M-180,85.375c0.896,0,1.625,0.729,1.625,1.625s-0.729,1.625-1.625,1.625s-1.625-0.729-1.625-1.625
				S-180.896,85.375-180,85.375 M-180,84.375c-1.45,0-2.625,1.175-2.625,2.625s1.175,2.625,2.625,2.625s2.625-1.175,2.625-2.625
				S-178.55,84.375-180,84.375L-180,84.375z"/>
		</g>
		<line fill="none" stroke="#D5D5D5" stroke-width="2" stroke-miterlimit="10" x1="-180" y1="75" x2="-180" y2="82.5"/>
		<line fill="none" stroke="#D5D5D5" stroke-width="2" stroke-miterlimit="10" x1="-180" y1="91.5" x2="-180" y2="99"/>
		<line fill="none" stroke="#D5D5D5" stroke-width="2" stroke-miterlimit="10" x1="-168" y1="87" x2="-175.5" y2="87"/>
		<line fill="none" stroke="#D5D5D5" stroke-width="2" stroke-miterlimit="10" x1="-184.5" y1="87" x2="-192" y2="87"/>
	</g>
	<polyline fill="none" stroke="#FFFFFF" stroke-width="2" stroke-miterlimit="10" points="1,53 11,63 1,73 	"/>
	<polyline fill="none" stroke="#666666" stroke-width="2" stroke-miterlimit="10" points="1,78 11,88 1,98 	"/>
	<polyline fill="none" stroke="#585858" stroke-width="2" stroke-miterlimit="10" points="1,103 11,113 1,123 	"/>
	<polyline fill="none" stroke="#666666" stroke-width="2" stroke-miterlimit="10" points="26,63 31,68 26,73 	"/>
	<polyline fill="none" stroke="#666666" stroke-width="2" stroke-miterlimit="10" points="226,188 231,193 226,198 	"/>
	<polyline fill="none" stroke="#FFFFFF" stroke-width="2" stroke-miterlimit="10" points="26,88 31,93 26,98 	"/>
	<polyline fill="none" stroke="#585858" stroke-width="2" stroke-miterlimit="10" points="26,113 31,118 26,123 	"/>
	<polyline fill="none" stroke="#FFFFFF" stroke-width="2" stroke-miterlimit="10" points="26,51 1,26 26,1 	"/>
	<polyline fill="none" stroke="#FFFFFF" stroke-width="2" stroke-miterlimit="10" points="60,0.5 53,7.5 50,4.5 	"/>
	<polyline fill="none" stroke="#FFFFFF" stroke-width="2" stroke-miterlimit="10" points="57,25.5 52.1,30.4 50,28.3 	"/>
	<g>
		<rect y="175" width="21" height="3.999"/>
		<rect y="178.999" fill="#FE0019" width="21" height="4.001"/>
		<rect y="183" fill="#FFDF00" width="21" height="4"/>
	</g>
	<g>
		<rect x="25" y="175" fill="#15008B" width="21" height="12"/>
		<polygon fill="#FFFFFF" points="46,179 41.263,179 46,176.334 46,175 43.554,175 37,178.639 37,175 34,175 34,178.639 27.336,175 
			25,175 25,176.334 29.626,179 25,179 25,183 29.627,183 25,185.602 25,187 27.336,187 34,183.299 34,187 37,187 37,183.298 
			43.554,187 46,187 46,185.602 41.262,183 46,183 		"/>
		<polygon fill="#FE0019" points="36.49,175 36.49,179.775 46,179.775 46,182.161 36.49,182.161 36.49,187 34.4,187 34.4,182.161 
			25,182.161 25,179.775 34.4,179.775 34.4,175 		"/>
		<polygon fill="#FE0019" points="31.963,178.978 30.406,178.978 25,175.891 25,175 		"/>
		<polygon fill="#FE0019" points="45.889,175 38.927,178.978 37.37,178.978 44.332,175 		"/>
		<polygon fill="#FE0019" points="46,186.102 40.483,183 38.927,183 46,186.992 		"/>
		<polygon fill="#FE0019" points="31.963,183 25,186.947 25,187 26.465,187 33.521,183 		"/>
	</g>
	<g>
		<rect x="50" y="175" fill="#00B542" width="7" height="12"/>
		<rect x="57" y="175" fill="#FFFFFF" width="7" height="12"/>
		<rect x="64" y="175" fill="#FE0019" width="7" height="12"/>
	</g>
	<g>
		<rect x="75" y="175" fill="#15008B" width="7" height="12"/>
		<rect x="82" y="175" fill="#FFFFFF" width="7" height="12"/>
		<rect x="89" y="175" fill="#FE0019" width="7" height="12"/>
	</g>
	<g display="none">
		<path display="inline" fill="#FFFFFF" d="M153,2h-3V0h4l1,2h17l-2,9h-15L153,2z M157.75,12c-0.966,0-1.75,0.784-1.75,1.75
			s0.784,1.75,1.75,1.75s1.75-0.784,1.75-1.75S158.716,12,157.75,12z M167.25,12c-0.966,0-1.75,0.784-1.75,1.75
			s0.784,1.75,1.75,1.75s1.75-0.784,1.75-1.75S168.216,12,167.25,12z M160,7h-3.167l0.334,2H160V7z M160,4h-3.667l0.334,2H160V4z
			 M164,7h-3v2h3V7z M164,4h-3v2h3V4z M168.167,7H165v2h2.833L168.167,7z M168.667,4H165v2h3.333L168.667,4z"/>
	</g>
	<g>
		<g>
			<polygon fill="#585858" points="-58,133 -48,133 -47,127 -57,127 -58,125 -61,125 -61,127 -59,127 			"/>
		</g>
		<circle fill="#585858" cx="-55.5" cy="135.5" r="1.5"/>
		<circle fill="#585858" cx="-49.5" cy="135.5" r="1.5"/>
	</g>
	<g display="none">
		<path display="inline" fill="#585858" d="M178,2h-3V0h4l1,2h17l-2,9h-15L178,2z M182.75,12c-0.966,0-1.75,0.784-1.75,1.75
			s0.784,1.75,1.75,1.75s1.75-0.784,1.75-1.75S183.716,12,182.75,12z M192.25,12c-0.966,0-1.75,0.784-1.75,1.75
			s0.784,1.75,1.75,1.75s1.75-0.784,1.75-1.75S193.216,12,192.25,12z M185,7h-3.167l0.334,2H185V7z M185,4h-3.667l0.334,2H185V4z
			 M189,7h-3v2h3V7z M189,4h-3v2h3V4z M193.167,7H190v2h2.833L193.167,7z M193.667,4H190v2h3.333L193.667,4z"/>
	</g>
	<g display="none">
		<g display="inline">
			<g>
				<polygon fill="#FFFFFF" points="159,31 166,31 167,27 159,27 158.357,25 156,25 156,26 157,26 				"/>
			</g>
			<circle fill="#FFFFFF" cx="160.25" cy="33.25" r="1.25"/>
			<circle fill="#FFFFFF" cx="164.75" cy="33.25" r="1.25"/>
		</g>
		<g display="inline">
			<g>
				<line fill="none" stroke="#FFFFFF" stroke-miterlimit="10" x1="154" y1="29.5" x2="150" y2="29.5"/>
				<g>
					<polygon fill="#FFFFFF" points="153,27.755 156.022,29.5 153,31.245 					"/>
				</g>
			</g>
		</g>
	</g>
	<g>
		<g display="none">
			<g display="inline">
				<polygon fill="#585858" points="184,32 191,32 192,28 184,28 183.357,26 181,26 181,27 182,27 				"/>
			</g>
			<circle display="inline" fill="#585858" cx="185.25" cy="34.25" r="1.25"/>
			<circle display="inline" fill="#585858" cx="189.75" cy="34.25" r="1.25"/>
		</g>
		<g>
			<g>
				<line fill="none" stroke="#585858" stroke-miterlimit="10" x1="179" y1="30.5" x2="175" y2="30.5"/>
				<g>
					<polygon fill="#585858" points="178,28.755 181.022,30.5 178,32.245 					"/>
				</g>
			</g>
		</g>
	</g>
	<g>
		<g display="none">
			<g display="inline">
				<polygon fill="#FFFFFF" points="159,32 166,32 167,28 159,28 158.357,26 156,26 156,27 157,27 				"/>
			</g>
			<g display="inline">
				<circle fill="#FFFFFF" cx="160.25" cy="34.25" r="1.25"/>
			</g>
			<g display="inline">
				<circle fill="#FFFFFF" cx="164.75" cy="34.25" r="1.25"/>
			</g>
		</g>
		<g>
			<line fill="#FFFFFF" x1="154" y1="31" x2="150" y2="31"/>
			<g>
				<line fill="none" stroke="#FFFFFF" stroke-miterlimit="10" x1="154" y1="30.5" x2="150" y2="30.5"/>
				<g>
					<polygon fill="#FFFFFF" points="153,28.755 156.022,30.5 153,32.245 					"/>
				</g>
			</g>
		</g>
	</g>
	<g>
		<circle fill="none" stroke="#585858" stroke-miterlimit="10" cx="299" cy="10.5" r="7.5"/>
		<g>
			<path fill="#585858" d="M299,8.5c1.103,0,2,0.897,2,2s-0.897,2-2,2s-2-0.897-2-2S297.897,8.5,299,8.5 M299,7.5
				c-1.658,0-3,1.344-3,3c0,1.658,1.342,3,3,3s3-1.342,3-3C302,8.844,300.658,7.5,299,7.5L299,7.5z"/>
		</g>
		<line fill="none" stroke="#585858" stroke-miterlimit="10" x1="299" y1="0.5" x2="299" y2="6.75"/>
		<line fill="none" stroke="#585858" stroke-miterlimit="10" x1="299" y1="14.25" x2="299" y2="20.5"/>
		<line fill="none" stroke="#585858" stroke-miterlimit="10" x1="309" y1="10.5" x2="302.75" y2="10.5"/>
		<line fill="none" stroke="#585858" stroke-miterlimit="10" x1="295.25" y1="10.5" x2="289" y2="10.5"/>
	</g>
	<g>
		<circle fill="none" stroke="#585858" stroke-width="2" stroke-miterlimit="10" cx="210" cy="10" r="7.5"/>
		<g>
			<path fill="#585858" d="M210,9c0.551,0,1,0.449,1,1s-0.449,1-1,1s-1-0.449-1-1S209.449,9,210,9 M210,7c-1.658,0-3,1.344-3,3
				c0,1.658,1.342,3,3,3s3-1.342,3-3C213,8.344,211.658,7,210,7L210,7z"/>
		</g>
		<line fill="none" stroke="#585858" stroke-width="2" stroke-miterlimit="10" x1="210" y1="0" x2="210" y2="6.25"/>
		<line fill="none" stroke="#585858" stroke-width="2" stroke-miterlimit="10" x1="210" y1="13.75" x2="210" y2="20"/>
		<line fill="none" stroke="#585858" stroke-width="2" stroke-miterlimit="10" x1="220" y1="10" x2="213.75" y2="10"/>
		<line fill="none" stroke="#585858" stroke-width="2" stroke-miterlimit="10" x1="206.25" y1="10" x2="200" y2="10"/>
	</g>
	<g id="REacture_Logo" display="none">
		<ellipse display="inline" fill="#666666" cx="70" cy="147.623" rx="4.518" ry="0.892"/>
		<path display="inline" fill="#585858" d="M70,103.86c8.901,0,16.141,7.241,16.141,16.141S78.901,136.142,70,136.142
			c-8.9,0-16.141-7.241-16.141-16.141S61.1,103.86,70,103.86 M90,120.001C90,108.955,81.045,100,70,100s-20,8.955-20,20.001
			c0,5.736,2.418,10.905,6.287,14.552h-0.005L70,147.624l13.72-13.071h-0.007C87.582,130.906,90,125.737,90,120.001z"/>
		<path display="inline" fill="#585858" d="M70,128.583V125.1h2.62l-0.624-1.99h-6.087l-0.623,1.99h2.226v3.482h-9.452V125.1h2.119
			l4.008-13.433h-1.153v-3.483h11.336l5.255,16.916h2.314v3.482H70z M70.898,119.129l-1.96-6.413l-1.93,6.413H70.898z"/>
	</g>
	<g id="Reacture_Logo" display="none">
		<ellipse display="inline" fill="#B3B3B3" cx="120" cy="147.623" rx="4.518" ry="0.892"/>
		<path display="inline" fill="#B3B3B3" d="M120,103.859c8.9,0,16.141,7.241,16.141,16.142S128.9,136.143,120,136.143
			s-16.141-7.241-16.141-16.142S111.1,103.859,120,103.859 M140,120.001c0-11.046-8.955-20.001-20-20.001s-20,8.955-20,20.001
			c0,5.736,2.418,10.905,6.287,14.552h-0.006L120,147.623l13.72-13.07h-0.007C137.582,130.906,140,125.737,140,120.001z"/>
		<path display="inline" fill="#B3B3B3" d="M120,128.582V125.1h2.62l-0.624-1.99h-6.087l-0.622,1.99h2.225v3.482h-9.451V125.1h2.119
			l4.008-13.433h-1.152v-3.483h11.336l5.256,16.916h2.314v3.482H120z M120.898,119.129l-1.961-6.412l-1.93,6.412H120.898z"/>
	</g>
	<g id="Wazzaround_Logo">
		<g>
			<g id="Abgerundetes_Rechteck_1">
				<g>
					<path fill="#B3B3B3" d="M109.696,133.686c-0.532-0.487-0.775-0.952-1.572-0.354l-7.726,7.549c-0.531,0.531-0.531,1.35,0,1.904
						c0.531,0.531,1.351,0.531,1.904,0l7.726-7.727C110.426,134.504,110.205,134.172,109.696,133.686z"/>
				</g>
			</g>
			<g>
				<g>
					<g>
						<path fill="#B3B3B3" d="M114.389,105.947c0.996,0,1.903,0.398,2.612,1.085c0.686,0.686,1.085,1.616,1.085,2.612v9.629h-9.63
							c-2.037,0-3.697-1.66-3.697-3.697c0-2.037,1.661-3.697,3.697-3.697h2.258v-2.258
							C110.692,107.629,112.352,105.947,114.389,105.947 M114.389,103.689c-3.299,0-5.956,2.657-5.956,5.956
							c-3.298,0-5.955,2.656-5.955,5.955c0,3.298,2.656,5.955,5.955,5.955h10.693c0.642,0,1.173-0.531,1.173-1.173v-10.759
							C120.366,106.368,117.687,103.689,114.389,103.689L114.389,103.689z"/>
					</g>
				</g>
			</g>
			<g>
				<g>
					<g>
						<path fill="#B3B3B3" d="M127.583,105.947c2.037,0,3.697,1.66,3.697,3.697v2.258h2.258c2.036,0,3.697,1.66,3.697,3.697
							c0,2.037-1.661,3.697-3.697,3.697h-9.63v-9.674C123.93,107.629,125.546,105.947,127.583,105.947 M127.583,103.689
							c-3.298,0-5.955,2.657-5.955,5.956v10.692c0,0.642,0.531,1.173,1.173,1.173h10.759c3.299,0,5.956-2.657,5.956-5.955
							c0-3.299-2.657-5.955-5.956-5.955C133.538,106.368,130.881,103.689,127.583,103.689L127.583,103.689z"/>
					</g>
				</g>
			</g>
			<g>
				<g>
					<g>
						<path fill="#B3B3B3" d="M119.171,122.838h-10.693c-3.298,0-5.955,2.657-5.955,5.955c0,3.299,2.656,5.955,5.955,5.955
							c0,3.299,2.656,5.956,5.955,5.956c3.298,0,5.955-2.657,5.955-5.956v-10.692C120.366,123.392,119.812,122.838,119.171,122.838z
							"/>
					</g>
				</g>
			</g>
			<g>
				<g>
					<g>
						<path fill="#B3B3B3" d="M133.538,125.096c2.036,0,3.652,1.66,3.652,3.697c0,2.036-1.66,3.697-3.697,3.697h-2.258v2.258
							c0,2.037-1.66,3.697-3.697,3.697s-3.697-1.66-3.697-3.697v-9.674h9.697 M133.538,122.838h-10.693
							c-0.642,0-1.173,0.532-1.173,1.173v10.759c0,3.299,2.656,5.955,5.955,5.955c3.299,0,5.955-2.656,5.955-5.955
							c3.299,0,5.956-2.656,5.956-5.955C139.537,125.517,136.836,122.838,133.538,122.838L133.538,122.838z"/>
					</g>
				</g>
			</g>
		</g>
		<g>
			<g id="Abgerundetes_Rechteck_1_1_">
				<g>
					<path fill="#585858" d="M59.696,133.686c-0.532-0.487-0.775-0.952-1.572-0.354l-7.726,7.549c-0.531,0.531-0.531,1.35,0,1.904
						c0.531,0.531,1.351,0.531,1.904,0l7.726-7.727C60.426,134.504,60.205,134.172,59.696,133.686z"/>
				</g>
			</g>
			<g>
				<g>
					<g>
						<path fill="#585858" d="M64.389,105.947c0.996,0,1.903,0.398,2.612,1.085c0.686,0.686,1.085,1.616,1.085,2.612v9.629h-9.63
							c-2.037,0-3.697-1.66-3.697-3.697c0-2.037,1.661-3.697,3.697-3.697h2.258v-2.258
							C60.692,107.629,62.352,105.947,64.389,105.947 M64.389,103.689c-3.299,0-5.956,2.657-5.956,5.956
							c-3.298,0-5.955,2.656-5.955,5.955c0,3.298,2.656,5.955,5.955,5.955h10.693c0.642,0,1.173-0.531,1.173-1.173v-10.759
							C70.366,106.368,67.687,103.689,64.389,103.689L64.389,103.689z"/>
					</g>
				</g>
			</g>
			<g>
				<g>
					<g>
						<path fill="#585858" d="M77.583,105.947c2.037,0,3.697,1.66,3.697,3.697v2.258h2.258c2.036,0,3.697,1.66,3.697,3.697
							c0,2.037-1.661,3.697-3.697,3.697h-9.63v-9.674C73.93,107.629,75.546,105.947,77.583,105.947 M77.583,103.689
							c-3.298,0-5.955,2.657-5.955,5.956v10.692c0,0.642,0.531,1.173,1.173,1.173H83.56c3.299,0,5.956-2.657,5.956-5.955
							c0-3.299-2.657-5.955-5.956-5.955C83.538,106.368,80.881,103.689,77.583,103.689L77.583,103.689z"/>
					</g>
				</g>
			</g>
			<g>
				<g>
					<g>
						<path fill="#585858" d="M69.171,122.838H58.478c-3.298,0-5.955,2.657-5.955,5.955c0,3.299,2.656,5.955,5.955,5.955
							c0,3.299,2.656,5.956,5.955,5.956c3.298,0,5.955-2.657,5.955-5.956v-10.692C70.366,123.392,69.812,122.838,69.171,122.838z"/>
					</g>
				</g>
			</g>
			<g>
				<g>
					<g>
						<path fill="#585858" d="M83.538,125.096c2.036,0,3.652,1.66,3.652,3.697c0,2.036-1.66,3.697-3.697,3.697h-2.258v2.258
							c0,2.037-1.66,3.697-3.697,3.697s-3.697-1.66-3.697-3.697v-9.674h9.697 M83.538,122.838H72.845
							c-0.642,0-1.173,0.532-1.173,1.173v10.759c0,3.299,2.656,5.955,5.955,5.955c3.299,0,5.955-2.656,5.955-5.955
							c3.299,0,5.956-2.656,5.956-5.955C89.537,125.517,86.836,122.838,83.538,122.838L83.538,122.838z"/>
					</g>
				</g>
			</g>
		</g>
		<g>
			<g>
				<g>
					<path fill="#585858" d="M186.111,18.042l7.561-7.561c2.332-2.333,2.332-6.089,0-8.421c-2.333-2.333-6.089-2.333-8.421,0
						c-2.333-2.333-6.09-2.333-8.422,0c-2.332,2.333-2.332,6.089,0,8.422l7.56,7.56C184.874,18.496,185.657,18.496,186.111,18.042z"
						/>
				</g>
			</g>
		</g>
		<g>
			<g>
				<g>
					<path fill="#585858" d="M188.288,34.796l4.025-4.025c1.242-1.242,1.241-3.242,0-4.483s-3.241-1.242-4.483,0
						c-1.242-1.242-3.242-1.242-4.483,0c-1.242,1.242-1.242,3.241,0,4.483l4.025,4.025
						C187.629,35.038,188.046,35.038,188.288,34.796z"/>
				</g>
			</g>
		</g>
		<g>
			<g>
				<g>
					<g>
						<path fill="#FFFFFF" d="M161.111,18.042l7.561-7.561c2.332-2.333,2.332-6.089,0-8.421c-2.333-2.333-6.089-2.333-8.421,0
							c-2.333-2.333-6.09-2.333-8.422,0c-2.332,2.333-2.332,6.089,0,8.422l7.56,7.56C159.874,18.496,160.657,18.496,161.111,18.042z
							"/>
					</g>
				</g>
			</g>
		</g>
		<g>
			<g>
				<g>
					<g>
						<path fill="#FFFFFF" d="M163.288,34.796l4.025-4.025c1.242-1.242,1.241-3.242,0-4.483s-3.241-1.242-4.483,0
							c-1.242-1.242-3.242-1.242-4.483,0c-1.242,1.242-1.242,3.241,0,4.483l4.025,4.025
							C162.629,35.038,163.046,35.038,163.288,34.796z"/>
					</g>
				</g>
			</g>
		</g>
	</g>
</g>
<g id="bugs" display="none">
	<g display="inline">
		<path fill="#FF0000" d="M141.133,8.684c0.129,0.129,0.194,0.282,0.194,0.459c0,0.177-0.065,0.33-0.194,0.459
			c-0.129,0.129-0.282,0.194-0.459,0.194h-2.286c0,1.163-0.228,2.149-0.684,2.959l2.123,2.132c0.129,0.129,0.194,0.283,0.194,0.459
			s-0.064,0.33-0.194,0.459c-0.123,0.129-0.275,0.194-0.459,0.194c-0.184,0-0.336-0.065-0.458-0.194l-2.021-2.01
			c-0.034,0.034-0.085,0.078-0.153,0.132c-0.068,0.055-0.211,0.152-0.429,0.291c-0.218,0.14-0.439,0.264-0.663,0.373
			c-0.225,0.108-0.503,0.208-0.837,0.295c-0.333,0.089-0.663,0.133-0.99,0.133V5.878h-1.306v9.143c-0.347,0-0.692-0.045-1.036-0.138
			c-0.343-0.091-0.639-0.204-0.887-0.336c-0.249-0.133-0.473-0.266-0.673-0.398c-0.201-0.133-0.349-0.243-0.444-0.332l-0.153-0.143
			l-1.867,2.112c-0.136,0.143-0.3,0.214-0.49,0.214c-0.164,0-0.31-0.054-0.439-0.163c-0.129-0.123-0.199-0.274-0.209-0.454
			c-0.01-0.18,0.042-0.338,0.158-0.474l2.062-2.316c-0.395-0.776-0.592-1.708-0.592-2.796h-2.286c-0.177,0-0.33-0.065-0.458-0.194
			C125.065,9.473,125,9.32,125,9.143c0-0.177,0.065-0.33,0.194-0.459c0.129-0.129,0.282-0.194,0.458-0.194h2.286v-3l-1.765-1.765
			c-0.129-0.13-0.193-0.283-0.193-0.459s0.064-0.33,0.193-0.459c0.129-0.129,0.283-0.193,0.459-0.193s0.33,0.064,0.459,0.193
			l1.765,1.765h8.612l1.766-1.765c0.129-0.129,0.282-0.193,0.459-0.193c0.176,0,0.33,0.064,0.458,0.193
			c0.129,0.13,0.194,0.283,0.194,0.459s-0.065,0.33-0.194,0.459l-1.765,1.765v3h2.286C140.851,8.49,141.003,8.555,141.133,8.684z
			 M136.429,3.266h-6.531c0-0.905,0.318-1.675,0.954-2.312S132.258,0,133.164,0c0.904,0,1.675,0.318,2.311,0.954
			C136.11,1.59,136.429,2.361,136.429,3.266z"/>
	</g>
	<g display="inline">
		<path fill="#FF0000" d="M135.583,30.428c0.081,0.081,0.121,0.176,0.121,0.287c0,0.111-0.041,0.207-0.121,0.287
			c-0.081,0.081-0.176,0.121-0.287,0.121h-1.429c0,0.727-0.143,1.344-0.427,1.85l1.327,1.333c0.081,0.081,0.121,0.177,0.121,0.287
			c0,0.111-0.04,0.206-0.121,0.287C134.69,34.959,134.595,35,134.479,35c-0.115,0-0.21-0.041-0.287-0.121l-1.263-1.256
			c-0.021,0.021-0.053,0.049-0.095,0.083c-0.042,0.034-0.132,0.095-0.268,0.182c-0.136,0.087-0.274,0.165-0.415,0.233
			s-0.314,0.13-0.523,0.185c-0.208,0.056-0.415,0.083-0.619,0.083v-5.714h-0.816v5.714c-0.217,0-0.433-0.028-0.647-0.086
			c-0.214-0.057-0.399-0.127-0.555-0.21s-0.295-0.166-0.421-0.249c-0.125-0.083-0.218-0.152-0.277-0.208l-0.096-0.089l-1.167,1.32
			c-0.085,0.089-0.188,0.134-0.306,0.134c-0.102,0-0.194-0.034-0.274-0.102c-0.081-0.077-0.125-0.171-0.13-0.284
			c-0.006-0.113,0.026-0.211,0.099-0.296l1.288-1.448c-0.247-0.485-0.37-1.067-0.37-1.748h-1.428c-0.111,0-0.206-0.041-0.287-0.121
			c-0.081-0.081-0.122-0.176-0.122-0.287c0-0.11,0.041-0.206,0.122-0.287c0.081-0.081,0.176-0.122,0.287-0.122h1.428v-1.875
			l-1.103-1.103c-0.081-0.081-0.121-0.177-0.121-0.287s0.04-0.206,0.121-0.287c0.081-0.081,0.177-0.121,0.287-0.121
			s0.206,0.041,0.287,0.121l1.103,1.103h5.383l1.104-1.103c0.081-0.081,0.176-0.121,0.287-0.121c0.11,0,0.206,0.041,0.287,0.121
			c0.081,0.081,0.121,0.177,0.121,0.287s-0.041,0.206-0.121,0.287l-1.104,1.103v1.875h1.429
			C135.407,30.306,135.502,30.347,135.583,30.428z M132.643,27.041h-4.082c0-0.565,0.199-1.047,0.597-1.445
			c0.397-0.397,0.879-0.596,1.444-0.596s1.047,0.199,1.444,0.596C132.444,25.994,132.643,26.476,132.643,27.041z"/>
	</g>
</g>
<g id="_x3F_">
	<g>
		<path fill="#FFFFFF" d="M129.446,4.202c0.168-0.479,0.41-0.894,0.725-1.247s0.7-0.627,1.157-0.823
			c0.456-0.195,0.967-0.293,1.531-0.293c0.51,0,0.975,0.073,1.393,0.22c0.417,0.146,0.779,0.358,1.083,0.635
			c0.304,0.277,0.54,0.616,0.708,1.019c0.168,0.401,0.252,0.863,0.252,1.384c0,0.336-0.04,0.638-0.122,0.904
			s-0.188,0.508-0.318,0.725c-0.13,0.217-0.279,0.418-0.448,0.603c-0.168,0.185-0.34,0.365-0.513,0.538
			c-0.174,0.163-0.345,0.329-0.513,0.497c-0.168,0.169-0.321,0.348-0.457,0.538c-0.136,0.19-0.244,0.396-0.326,0.619
			s-0.122,0.476-0.122,0.758v0.635h-1.385v-0.765c0.021-0.457,0.106-0.844,0.252-1.165c0.147-0.32,0.326-0.605,0.538-0.855
			c0.212-0.25,0.434-0.48,0.668-0.692s0.451-0.434,0.652-0.668c0.201-0.233,0.361-0.491,0.48-0.773
			c0.119-0.282,0.168-0.625,0.146-1.026c-0.043-0.597-0.236-1.064-0.578-1.401c-0.342-0.337-0.807-0.505-1.393-0.505
			c-0.391,0-0.728,0.07-1.01,0.212c-0.283,0.141-0.519,0.331-0.708,0.57c-0.19,0.239-0.329,0.521-0.416,0.847
			c-0.087,0.326-0.13,0.679-0.13,1.059h-1.385C129.199,5.195,129.277,4.68,129.446,4.202z M133.673,11.94v1.808h-1.809V11.94
			H133.673z"/>
	</g>
	<g>
		<path fill="#FFFFFF" d="M128.005,27.665c0.129-0.37,0.316-0.69,0.56-0.963c0.243-0.273,0.541-0.484,0.894-0.636
			c0.352-0.151,0.747-0.226,1.183-0.226c0.394,0,0.753,0.056,1.076,0.17c0.322,0.113,0.602,0.277,0.837,0.49
			c0.234,0.214,0.417,0.476,0.547,0.787c0.13,0.31,0.195,0.667,0.195,1.069c0,0.26-0.031,0.493-0.094,0.699s-0.146,0.392-0.246,0.56
			c-0.101,0.168-0.216,0.323-0.346,0.465c-0.13,0.143-0.263,0.282-0.396,0.416c-0.134,0.125-0.266,0.253-0.396,0.383
			c-0.13,0.13-0.248,0.269-0.353,0.416c-0.105,0.147-0.188,0.306-0.251,0.478s-0.095,0.367-0.095,0.585v0.49h-1.069v-0.591
			c0.017-0.353,0.082-0.652,0.195-0.899c0.114-0.247,0.252-0.468,0.416-0.661s0.335-0.371,0.516-0.535s0.348-0.335,0.503-0.517
			c0.155-0.18,0.279-0.379,0.371-0.597s0.13-0.482,0.113-0.793c-0.033-0.461-0.182-0.822-0.446-1.082
			c-0.265-0.26-0.623-0.39-1.076-0.39c-0.302,0-0.562,0.054-0.78,0.164c-0.219,0.109-0.401,0.255-0.547,0.44
			c-0.147,0.185-0.254,0.402-0.321,0.654c-0.068,0.251-0.101,0.524-0.101,0.818h-1.07C127.814,28.432,127.875,28.034,128.005,27.665
			z M131.27,33.641v1.396h-1.397v-1.396H131.27z"/>
	</g>
</g>
<g id="GRID" display="none">
	<line display="inline" fill="none" stroke="#00FFFF" x1="-80" y1="-0.5" x2="718" y2="-0.5"/>
	<text transform="matrix(1 0 0 1 -87.7144 1)" display="inline" fill="#00FFFF" font-family="'Silkscreen'" font-size="8">0</text>
	<text transform="matrix(1 0 0 1 -88.6665 -16)" display="inline" fill="#00FFFF" font-family="'Silkscreen'" font-size="8">Y</text>
	<text transform="matrix(1 0 0 1 -2 -83.6201)" display="inline" fill="#00FFFF" font-family="'Silkscreen'" font-size="8">0</text>
	<text transform="matrix(1 0 0 1 -22 -83.6201)" display="inline" fill="#00FFFF" font-family="'Silkscreen'" font-size="8">X</text>
	<line display="inline" fill="none" stroke="#6BFFFF" x1="-80" y1="24.5" x2="718" y2="24.5"/>
	<text transform="matrix(1 0 0 1 -93.4287 26)" display="inline" fill="#6BFFFF" font-family="'Silkscreen'" font-size="8">25</text>
	<line display="inline" fill="none" stroke="#6BFFFF" x1="-80" y1="49.5" x2="718" y2="49.5"/>
	<text transform="matrix(1 0 0 1 -93.4287 51)" display="inline" fill="#6BFFFF" font-family="'Silkscreen'" font-size="8">50</text>
	<line display="inline" fill="none" stroke="#6BFFFF" x1="-80" y1="74.5" x2="718" y2="74.5"/>
	<text transform="matrix(1 0 0 1 -93.4287 76)" display="inline" fill="#6BFFFF" font-family="'Silkscreen'" font-size="8">75</text>
	<line display="inline" fill="none" stroke="#00FFFF" x1="-80" y1="99.5" x2="718" y2="99.5"/>
	<text transform="matrix(1 0 0 1 -98.1904 101)" display="inline" fill="#00FFFF" font-family="'Silkscreen'" font-size="8">100</text>
	<line display="inline" fill="none" stroke="#6BFFFF" x1="-80" y1="124.5" x2="718" y2="124.5"/>
	<text transform="matrix(1 0 0 1 -98.1904 126)" display="inline" fill="#6BFFFF" font-family="'Silkscreen'" font-size="8">125</text>
	<line display="inline" fill="none" stroke="#6BFFFF" x1="-80" y1="149.5" x2="718" y2="149.5"/>
	<text transform="matrix(1 0 0 1 -98.1904 151)" display="inline" fill="#6BFFFF" font-family="'Silkscreen'" font-size="8">150</text>
	<line display="inline" fill="none" stroke="#6BFFFF" x1="-80" y1="174.5" x2="718" y2="174.5"/>
	<text transform="matrix(1 0 0 1 -98.1904 176)" display="inline" fill="#6BFFFF" font-family="'Silkscreen'" font-size="8">175</text>
	<line display="inline" fill="none" stroke="#00FFFF" x1="-80" y1="199.5" x2="718" y2="199.5"/>
	<text transform="matrix(1 0 0 1 -99.1426 201)" display="inline" fill="#00FFFF" font-family="'Silkscreen'" font-size="8">200</text>
	<line display="inline" fill="none" stroke="#6BFFFF" x1="-80" y1="224.5" x2="718" y2="224.5"/>
	<text transform="matrix(1 0 0 1 -99.1426 226)" display="inline" fill="#6BFFFF" font-family="'Silkscreen'" font-size="8">225</text>
	<line display="inline" fill="none" stroke="#6BFFFF" x1="-80" y1="249.5" x2="718" y2="249.5"/>
	<text transform="matrix(1 0 0 1 -99.1426 251)" display="inline" fill="#6BFFFF" font-family="'Silkscreen'" font-size="8">250</text>
	<line display="inline" fill="none" stroke="#6BFFFF" x1="-80" y1="274.5" x2="718" y2="274.5"/>
	<text transform="matrix(1 0 0 1 -99.1426 276)" display="inline" fill="#6BFFFF" font-family="'Silkscreen'" font-size="8">275</text>
	<line display="inline" fill="none" stroke="#00FFFF" x1="-80" y1="299.5" x2="718" y2="299.5"/>
	<text transform="matrix(1 0 0 1 -99.1426 301)" display="inline" fill="#00FFFF" font-family="'Silkscreen'" font-size="8">300</text>
	<line display="inline" fill="none" stroke="#6BFFFF" x1="-80" y1="324.5" x2="718" y2="324.5"/>
	<text transform="matrix(1 0 0 1 -99.1426 326)" display="inline" fill="#6BFFFF" font-family="'Silkscreen'" font-size="8">325</text>
	<line display="inline" fill="none" stroke="#6BFFFF" x1="-80" y1="349.5" x2="718" y2="349.5"/>
	<text transform="matrix(1 0 0 1 -99.1426 351)" display="inline" fill="#6BFFFF" font-family="'Silkscreen'" font-size="8">350</text>
	<line display="inline" fill="none" stroke="#6BFFFF" x1="-80" y1="374.5" x2="718" y2="374.5"/>
	<text transform="matrix(1 0 0 1 -99.1426 376)" display="inline" fill="#6BFFFF" font-family="'Silkscreen'" font-size="8">375</text>
	<line display="inline" fill="none" stroke="#00FFFF" x1="-80" y1="399.5" x2="718" y2="399.5"/>
	<text transform="matrix(1 0 0 1 -99.1426 401)" display="inline" fill="#00FFFF" font-family="'Silkscreen'" font-size="8">400</text>
	<line display="inline" fill="none" stroke="#6BFFFF" x1="-80" y1="424.5" x2="718" y2="424.5"/>
	<text transform="matrix(1 0 0 1 -99.1426 426)" display="inline" fill="#6BFFFF" font-family="'Silkscreen'" font-size="8">425</text>
	<line display="inline" fill="none" stroke="#6BFFFF" x1="-80" y1="449.5" x2="718" y2="449.5"/>
	<text transform="matrix(1 0 0 1 -99.1426 451)" display="inline" fill="#6BFFFF" font-family="'Silkscreen'" font-size="8">450</text>
	<line display="inline" fill="none" stroke="#6BFFFF" x1="-80" y1="474.5" x2="718" y2="474.5"/>
	<text transform="matrix(1 0 0 1 -99.1426 476)" display="inline" fill="#6BFFFF" font-family="'Silkscreen'" font-size="8">475</text>
	<line display="inline" fill="none" stroke="#00FFFF" x1="-80" y1="499.5" x2="718" y2="499.5"/>
	<text transform="matrix(1 0 0 1 -99.1426 501)" display="inline" fill="#00FFFF" font-family="'Silkscreen'" font-size="8">500</text>
	<line display="inline" fill="none" stroke="#6BFFFF" x1="-80" y1="524.5" x2="718" y2="524.5"/>
	<text transform="matrix(1 0 0 1 -99.1426 526)" display="inline" fill="#6BFFFF" font-family="'Silkscreen'" font-size="8">525</text>
	<line display="inline" fill="none" stroke="#6BFFFF" x1="-80" y1="549.5" x2="718" y2="549.5"/>
	<text transform="matrix(1 0 0 1 -99.1426 551)" display="inline" fill="#6BFFFF" font-family="'Silkscreen'" font-size="8">550</text>
	<line display="inline" fill="none" stroke="#6BFFFF" x1="-80" y1="574.5" x2="718" y2="574.5"/>
	<text transform="matrix(1 0 0 1 -99.1426 576)" display="inline" fill="#6BFFFF" font-family="'Silkscreen'" font-size="8">575</text>
	<line display="inline" fill="none" stroke="#00FFFF" x1="-80" y1="599.5" x2="718" y2="599.5"/>
	<text transform="matrix(1 0 0 1 -99.1426 601)" display="inline" fill="#00FFFF" font-family="'Silkscreen'" font-size="8">600</text>
	<line display="inline" fill="none" stroke="#6BFFFF" x1="-80" y1="624.5" x2="718" y2="624.5"/>
	<text transform="matrix(1 0 0 1 -99.1426 626)" display="inline" fill="#6BFFFF" font-family="'Silkscreen'" font-size="8">625</text>
	<line display="inline" fill="none" stroke="#6BFFFF" x1="-80" y1="649.5" x2="718" y2="649.5"/>
	<text transform="matrix(1 0 0 1 -99.1426 651)" display="inline" fill="#6BFFFF" font-family="'Silkscreen'" font-size="8">650</text>
	<line display="inline" fill="none" stroke="#6BFFFF" x1="-80" y1="674.5" x2="718" y2="674.5"/>
	<text transform="matrix(1 0 0 1 -99.1426 676)" display="inline" fill="#6BFFFF" font-family="'Silkscreen'" font-size="8">675</text>
	<line display="inline" fill="none" stroke="#00FFFF" x1="-80" y1="699.5" x2="718" y2="699.5"/>
	<text transform="matrix(1 0 0 1 -99.1426 701)" display="inline" fill="#00FFFF" font-family="'Silkscreen'" font-size="8">700</text>
	<line display="inline" fill="none" stroke="#6BFFFF" x1="-80" y1="724.5" x2="718" y2="724.5"/>
	<text transform="matrix(1 0 0 1 -99.1426 726)" display="inline" fill="#6BFFFF" font-family="'Silkscreen'" font-size="8">725</text>
	<line display="inline" fill="none" stroke="#6BFFFF" x1="-80" y1="749.5" x2="718" y2="749.5"/>
	<text transform="matrix(1 0 0 1 -99.1426 751)" display="inline" fill="#6BFFFF" font-family="'Silkscreen'" font-size="8">750</text>
	<line display="inline" fill="none" stroke="#6BFFFF" x1="-80" y1="774.5" x2="718" y2="774.5"/>
	<text transform="matrix(1 0 0 1 -99.1426 776)" display="inline" fill="#6BFFFF" font-family="'Silkscreen'" font-size="8">775</text>
	<line display="inline" fill="none" stroke="#00FFFF" x1="-80" y1="799.5" x2="718" y2="799.5"/>
	<text transform="matrix(1 0 0 1 -99.1426 801)" display="inline" fill="#00FFFF" font-family="'Silkscreen'" font-size="8">800</text>
	<line display="inline" fill="none" stroke="#6BFFFF" x1="-80" y1="824.5" x2="718" y2="824.5"/>
	<text transform="matrix(1 0 0 1 -99.1426 826)" display="inline" fill="#6BFFFF" font-family="'Silkscreen'" font-size="8">825</text>
	<line display="inline" fill="none" stroke="#6BFFFF" x1="-80" y1="849.5" x2="718" y2="849.5"/>
	<text transform="matrix(1 0 0 1 -99.1426 851)" display="inline" fill="#6BFFFF" font-family="'Silkscreen'" font-size="8">850</text>
	<line display="inline" fill="none" stroke="#6BFFFF" x1="-80" y1="874.5" x2="718" y2="874.5"/>
	<text transform="matrix(1 0 0 1 -99.1426 876)" display="inline" fill="#6BFFFF" font-family="'Silkscreen'" font-size="8">875</text>
	<line display="inline" fill="none" stroke="#00FFFF" x1="-80" y1="899.5" x2="718" y2="899.5"/>
	<text transform="matrix(1 0 0 1 -99.1426 901)" display="inline" fill="#00FFFF" font-family="'Silkscreen'" font-size="8">900</text>
	<line display="inline" fill="none" stroke="#6BFFFF" x1="-80" y1="924.5" x2="718" y2="924.5"/>
	<text transform="matrix(1 0 0 1 -99.1426 926)" display="inline" fill="#6BFFFF" font-family="'Silkscreen'" font-size="8">925</text>
	<line display="inline" fill="none" stroke="#6BFFFF" x1="-80" y1="949.5" x2="718" y2="949.5"/>
	<text transform="matrix(1 0 0 1 -99.1426 951)" display="inline" fill="#6BFFFF" font-family="'Silkscreen'" font-size="8">950</text>
	<line display="inline" fill="none" stroke="#6BFFFF" x1="-80" y1="974.5" x2="718" y2="974.5"/>
	<text transform="matrix(1 0 0 1 -99.1426 976)" display="inline" fill="#6BFFFF" font-family="'Silkscreen'" font-size="8">975</text>
	<line display="inline" fill="none" stroke="#00FFFF" x1="-80" y1="999.5" x2="718" y2="999.5"/>
	<text transform="matrix(1 0 0 1 -103.9043 1001)" display="inline" fill="#00FFFF" font-family="'Silkscreen'" font-size="8">1000</text>
	<line display="inline" fill="none" stroke="#6BFFFF" x1="-80" y1="1024.5" x2="718" y2="1024.5"/>
	<text transform="matrix(1 0 0 1 -103.9043 1026)" display="inline" fill="#6BFFFF" font-family="'Silkscreen'" font-size="8">1025</text>
	<line display="inline" fill="none" stroke="#6BFFFF" x1="-80" y1="1049.5" x2="718" y2="1049.5"/>
	<text transform="matrix(1 0 0 1 -103.9043 1051)" display="inline" fill="#6BFFFF" font-family="'Silkscreen'" font-size="8">1050</text>
	<line display="inline" fill="none" stroke="#6BFFFF" x1="-80" y1="1074.5" x2="718" y2="1074.5"/>
	<text transform="matrix(1 0 0 1 -103.9043 1076)" display="inline" fill="#6BFFFF" font-family="'Silkscreen'" font-size="8">1075</text>
	<line display="inline" fill="none" stroke="#00FFFF" x1="-80" y1="1099.5" x2="718" y2="1099.5"/>
	<text transform="matrix(1 0 0 1 -102.9521 1101)" display="inline" fill="#00FFFF" font-family="'Silkscreen'" font-size="8">1100</text>
	<line display="inline" fill="none" stroke="#6BFFFF" x1="-80" y1="1124.5" x2="718" y2="1124.5"/>
	<text transform="matrix(1 0 0 1 -102.9521 1126)" display="inline" fill="#6BFFFF" font-family="'Silkscreen'" font-size="8">1125</text>
	<line display="inline" fill="none" stroke="#6BFFFF" x1="-80" y1="1149.5" x2="718" y2="1149.5"/>
	<text transform="matrix(1 0 0 1 -102.9521 1151)" display="inline" fill="#6BFFFF" font-family="'Silkscreen'" font-size="8">1150</text>
	<line display="inline" fill="none" stroke="#6BFFFF" x1="-80" y1="1174.5" x2="718" y2="1174.5"/>
	<text transform="matrix(1 0 0 1 -102.9521 1176)" display="inline" fill="#6BFFFF" font-family="'Silkscreen'" font-size="8">1175</text>
	<line display="inline" fill="none" stroke="#00FFFF" x1="-80" y1="1199.5" x2="718" y2="1199.5"/>
	<text transform="matrix(1 0 0 1 -103.9043 1201)" display="inline" fill="#00FFFF" font-family="'Silkscreen'" font-size="8">1200</text>
	<line display="inline" fill="none" stroke="#6BFFFF" x1="-80" y1="1224.5" x2="718" y2="1224.5"/>
	<text transform="matrix(1 0 0 1 -103.9043 1226)" display="inline" fill="#6BFFFF" font-family="'Silkscreen'" font-size="8">1225</text>
	<line display="inline" fill="none" stroke="#6BFFFF" x1="-80" y1="1249.5" x2="718" y2="1249.5"/>
	<text transform="matrix(1 0 0 1 -103.9043 1251)" display="inline" fill="#6BFFFF" font-family="'Silkscreen'" font-size="8">1250</text>
	<line display="inline" fill="none" stroke="#6BFFFF" x1="-80" y1="1274.5" x2="718" y2="1274.5"/>
	<text transform="matrix(1 0 0 1 -103.9043 1276)" display="inline" fill="#6BFFFF" font-family="'Silkscreen'" font-size="8">1275</text>
	<line display="inline" fill="none" stroke="#00FFFF" x1="-80" y1="1299.5" x2="718" y2="1299.5"/>
	<text transform="matrix(1 0 0 1 -103.9043 1301)" display="inline" fill="#00FFFF" font-family="'Silkscreen'" font-size="8">1300</text>
	<line display="inline" fill="none" stroke="#6BFFFF" x1="-80" y1="1324.5" x2="718" y2="1324.5"/>
	<text transform="matrix(1 0 0 1 -103.9043 1326)" display="inline" fill="#6BFFFF" font-family="'Silkscreen'" font-size="8">1325</text>
	<line display="inline" fill="none" stroke="#6BFFFF" x1="-80" y1="1349.5" x2="718" y2="1349.5"/>
	<text transform="matrix(1 0 0 1 -103.9043 1351)" display="inline" fill="#6BFFFF" font-family="'Silkscreen'" font-size="8">1350</text>
	<line display="inline" fill="none" stroke="#6BFFFF" x1="-80" y1="1374.5" x2="718" y2="1374.5"/>
	<text transform="matrix(1 0 0 1 -103.9043 1376)" display="inline" fill="#6BFFFF" font-family="'Silkscreen'" font-size="8">1375</text>
	<line display="inline" fill="none" stroke="#00FFFF" x1="-80" y1="1399.5" x2="718" y2="1399.5"/>
	<text transform="matrix(1 0 0 1 -103.9043 1401)" display="inline" fill="#00FFFF" font-family="'Silkscreen'" font-size="8">1400</text>
	<line display="inline" fill="none" stroke="#6BFFFF" x1="-80" y1="1424.5" x2="718" y2="1424.5"/>
	<text transform="matrix(1 0 0 1 -103.9043 1426)" display="inline" fill="#6BFFFF" font-family="'Silkscreen'" font-size="8">1425</text>
	<line display="inline" fill="none" stroke="#6BFFFF" x1="-80" y1="1449.5" x2="718" y2="1449.5"/>
	<text transform="matrix(1 0 0 1 -103.9043 1451)" display="inline" fill="#6BFFFF" font-family="'Silkscreen'" font-size="8">1450</text>
	<line display="inline" fill="none" stroke="#6BFFFF" x1="-80" y1="1474.5" x2="718" y2="1474.5"/>
	<text transform="matrix(1 0 0 1 -103.9043 1476)" display="inline" fill="#6BFFFF" font-family="'Silkscreen'" font-size="8">1475</text>
	<line display="inline" fill="none" stroke="#00FFFF" x1="-80" y1="1499.5" x2="718" y2="1499.5"/>
	<text transform="matrix(1 0 0 1 -103.9043 1501)" display="inline" fill="#00FFFF" font-family="'Silkscreen'" font-size="8">1500</text>
	<line display="inline" fill="none" stroke="#00FFFF" x1="-0.5" y1="-80" x2="-0.5" y2="1500"/>
	<text transform="matrix(1 0 0 1 23 -83.6201)" display="inline" fill="#6BFFFF" font-family="'Silkscreen'" font-size="8">25</text>
	<line display="inline" fill="none" stroke="#6BFFFF" x1="24.5" y1="-80" x2="24.5" y2="1500"/>
	<text transform="matrix(1 0 0 1 48 -83.6201)" display="inline" fill="#6BFFFF" font-family="'Silkscreen'" font-size="8">50</text>
	<line display="inline" fill="none" stroke="#6BFFFF" x1="49.5" y1="-80" x2="49.5" y2="1500"/>
	<text transform="matrix(1 0 0 1 73 -83.6201)" display="inline" fill="#6BFFFF" font-family="'Silkscreen'" font-size="8">75</text>
	<line display="inline" fill="none" stroke="#6BFFFF" x1="74.5" y1="-80" x2="74.5" y2="1500"/>
	<text transform="matrix(1 0 0 1 98 -83.6201)" display="inline" fill="#00FFFF" font-family="'Silkscreen'" font-size="8">100</text>
	<line display="inline" fill="none" stroke="#00FFFF" x1="99.5" y1="-79" x2="99.5" y2="1501"/>
	<text transform="matrix(1 0 0 1 123 -83.6201)" display="inline" fill="#6BFFFF" font-family="'Silkscreen'" font-size="8">125</text>
	<line display="inline" fill="none" stroke="#6BFFFF" x1="124.5" y1="-80" x2="124.5" y2="1500"/>
	<text transform="matrix(1 0 0 1 148 -83.6201)" display="inline" fill="#6BFFFF" font-family="'Silkscreen'" font-size="8">150</text>
	<line display="inline" fill="none" stroke="#6BFFFF" x1="149.5" y1="-80" x2="149.5" y2="1500"/>
	<text transform="matrix(1 0 0 1 173 -83.6201)" display="inline" fill="#6BFFFF" font-family="'Silkscreen'" font-size="8">175</text>
	<line display="inline" fill="none" stroke="#6BFFFF" x1="174.5" y1="-80" x2="174.5" y2="1500"/>
	<text transform="matrix(1 0 0 1 198 -83.6201)" display="inline" fill="#00FFFF" font-family="'Silkscreen'" font-size="8">200</text>
	<line display="inline" fill="none" stroke="#00FFFF" x1="199.5" y1="-80" x2="199.5" y2="1500"/>
	<text transform="matrix(1 0 0 1 223 -83.6201)" display="inline" fill="#6BFFFF" font-family="'Silkscreen'" font-size="8">225</text>
	<line display="inline" fill="none" stroke="#6BFFFF" x1="224.5" y1="-80" x2="224.5" y2="1500"/>
	<text transform="matrix(1 0 0 1 248 -83.6201)" display="inline" fill="#6BFFFF" font-family="'Silkscreen'" font-size="8">250</text>
	<line display="inline" fill="none" stroke="#6BFFFF" x1="249.5" y1="-80" x2="249.5" y2="1500"/>
	<text transform="matrix(1 0 0 1 273 -83.6201)" display="inline" fill="#6BFFFF" font-family="'Silkscreen'" font-size="8">275</text>
	<line display="inline" fill="none" stroke="#6BFFFF" x1="274.5" y1="-80" x2="274.5" y2="1500"/>
	<text transform="matrix(1 0 0 1 298 -83.6201)" display="inline" fill="#00FFFF" font-family="'Silkscreen'" font-size="8">300</text>
	<line display="inline" fill="none" stroke="#00FFFF" x1="299.5" y1="-80" x2="299.5" y2="1500"/>
	<text transform="matrix(1 0 0 1 323 -83.6201)" display="inline" fill="#6BFFFF" font-family="'Silkscreen'" font-size="8">325</text>
	<line display="inline" fill="none" stroke="#6BFFFF" x1="324.5" y1="-80" x2="324.5" y2="1500"/>
	<text transform="matrix(1 0 0 1 348 -83.6201)" display="inline" fill="#6BFFFF" font-family="'Silkscreen'" font-size="8">350</text>
	<line display="inline" fill="none" stroke="#6BFFFF" x1="349.5" y1="-80" x2="349.5" y2="1500"/>
	<text transform="matrix(1 0 0 1 373 -83.6201)" display="inline" fill="#6BFFFF" font-family="'Silkscreen'" font-size="8">375</text>
	<line display="inline" fill="none" stroke="#6BFFFF" x1="374.5" y1="-80" x2="374.5" y2="1500"/>
	<rect x="375" y="124" display="inline" opacity="0.15" fill="#FF00FF" width="149" height="100"/>
</g>
</svg>
