<?xml version="1.0" encoding="utf-8"?>
<!-- Generator: Adobe Illustrator 16.0.0, SVG Export Plug-In . SVG Version: 6.00 Build 0)  -->
<!DOCTYPE svg PUBLIC "-//W3C//DTD SVG 1.1//EN" "http://www.w3.org/Graphics/SVG/1.1/DTD/svg11.dtd">
<svg version="1.1" id="Layer_1" xmlns="http://www.w3.org/2000/svg" xmlns:xlink="http://www.w3.org/1999/xlink" x="0px" y="0px"
	 width="243px" height="96px" viewBox="0 0 243 96" enable-background="new 0 0 243 96" xml:space="preserve">
<g>
	<g>
		<ellipse fill="#666666" cx="77.018" cy="93.97" rx="8.915" ry="1.76"/>
		<g>
			<path fill="#666666" d="M0,56.794V49.12h2.579V35.118H0.06v-7.616h11.013l1.759,3.749c1.521-2.812,3.046-5.213,9.08-5.213v10.544
				c-5.271,0-8.26,1.348-8.26,6.503v6.035h2.93v7.675H0z M52.706,52.751c-4.336,3.749-9.02,5.098-15.115,5.098
				c-7.263,0-15.463-4.629-15.463-15.877c0-9.609,6.912-15.291,15.759-15.291c6.97,0,12.301,3.574,14,8.494
				c0.704,2.052,1.349,6.563,0.118,9.902H33.552c0.35,1.582,1.112,4.805,6.032,4.805c1.992,0,5.04-0.176,8.202-2.812L52.706,52.751z
				 M42.571,39.278c-0.058-2.228-0.584-4.689-4.334-4.689c-3.573,0-4.393,3.223-4.511,4.689H42.571z M121.242,40.742
				c-0.117-2.812-0.997-6.153-3.689-6.153c-3.458,0-5.157,3.692-5.157,7.501c0,3.807,2.285,6.855,6.035,6.912
				c3.104,0.061,5.155-1.23,7.088-3.338l5.155,5.975c-2.752,2.988-8.025,5.978-14.354,5.978c-8.611,0-16.11-5.216-16.11-15.644
				c0-10.371,6.915-14.997,14.413-14.997c3.982,0,6.326,2.167,7.321,3.338l0.997-2.812h6.912v13.24H121.242z M134.673,27.501v-5.391
				l10.781-3.457v8.847h5.566v7.616h-5.566v10.428c0,1.992-0.41,4.686,1.875,4.686c0.76,0,2.577-0.525,3.691-0.994v7.498
				c-1.759,0.702-5.741,1.113-7.09,1.113c-8.789,0-9.08-4.805-9.258-12.303V35.118h-3.163v-7.616H134.673z M166.711,27.501v14.12
				c0,5.038,0.765,7.38,3.165,7.38c2.051,0,3.689-1.814,3.689-4.451v-9.315h-3.864v-7.734h15.173v21.5h2.871v7.793h-11.074
				l-1.581-3.691c-1.289,1.465-3.341,4.513-8.318,4.513c-8.847,0-11.776-4.571-11.776-14.295v-8.085h-2.461v-7.734H166.711z
				 M189.963,56.794V49.12h2.578V35.118h-2.519v-7.616h11.013l1.759,3.749c1.521-2.812,3.045-5.213,9.08-5.213v10.544
				c-5.272,0-8.261,1.348-8.261,6.503v6.035h2.93v7.675H189.963z M242.669,52.751c-4.336,3.749-9.021,5.098-15.115,5.098
				c-7.263,0-15.464-4.629-15.464-15.877c0-9.609,6.913-15.291,15.76-15.291c6.97,0,12.301,3.574,14,8.494
				c0.704,2.052,1.348,6.563,0.115,9.902h-18.451c0.351,1.582,1.113,4.805,6.032,4.805c1.993,0,5.04-0.176,8.201-2.812
				L242.669,52.751z M232.534,39.278c-0.059-2.228-0.585-4.689-4.334-4.689c-3.573,0-4.396,3.223-4.513,4.689H232.534z"/>
		</g>
	</g>
	<g>
		<g>
			<path fill="#85C900" d="M48.387,25.525c5.18-10.593,16.066-17.909,28.629-17.909c12.481,0,23.302,7.22,28.523,17.699
				c2.297-1.203,4.841-1.905,7.434-2.109C106.776,9.524,93.012,0,77.017,0C61.073,0,47.346,9.463,41.12,23.074
				C43.798,23.45,46.256,24.295,48.387,25.525z"/>
			<path fill="#85C900" d="M110.292,61.085c-2.6-0.698-4.922-2.056-6.888-3.595c-5.731,8.459-15.421,13.929-26.388,13.929
				c-10.483,0-19.798-5.146-25.605-12.986c-2.247,1.306-4.687,2.566-7.392,3.091C45.721,64.114,47.712,67,49.958,69h-0.01
				l27.068,25.789L104.088,69h-0.013C106.442,66,108.533,63.838,110.292,61.085z"/>
		</g>
		<path fill="#85C900" d="M77.017,56.4v-6.871h5.17l-1.23-3.927H68.944l-1.229,3.927h4.393V56.4h-18.65v-6.871h4.182l7.908-26.506
			h-2.273v-6.874h22.369l10.368,33.38h4.566V56.4H77.017z M78.789,37.748l-3.867-12.656l-3.81,12.656H78.789z"/>
		<g>
			<path fill="#85C900" d="M129.062,63.664v0.949h-4.128v3.006h3.528v0.947h-3.528v3.696h-1.17v-8.599H129.062z"/>
			<path fill="#85C900" d="M131.936,72.262h-1.164v-8.599h1.164V72.262z"/>
			<path fill="#85C900" d="M135.07,63.703c0.05,0.027,0.107,0.08,0.171,0.16l4.98,6.479c-0.013-0.104-0.021-0.205-0.024-0.304
				c-0.004-0.098-0.006-0.192-0.006-0.284v-6.091h1.02v8.599h-0.588c-0.092,0-0.169-0.017-0.23-0.048
				c-0.062-0.032-0.123-0.086-0.184-0.162l-4.974-6.475c0.008,0.101,0.014,0.199,0.018,0.295s0.007,0.184,0.007,0.264v6.126h-1.021
				v-8.599h0.6C134.943,63.664,135.021,63.677,135.07,63.703z"/>
			<path fill="#85C900" d="M150.764,67.966c0,0.645-0.103,1.23-0.306,1.758c-0.204,0.528-0.492,0.98-0.864,1.355
				c-0.372,0.377-0.818,0.668-1.338,0.873c-0.521,0.207-1.097,0.31-1.729,0.31h-3.216v-8.599h3.216c0.632,0,1.208,0.104,1.729,0.31
				c0.52,0.206,0.966,0.498,1.338,0.876s0.66,0.831,0.864,1.359C150.661,66.736,150.764,67.322,150.764,67.966z M149.569,67.966
				c0-0.528-0.071-1-0.216-1.416c-0.144-0.416-0.348-0.768-0.612-1.057c-0.264-0.287-0.584-0.508-0.96-0.66
				c-0.376-0.151-0.794-0.227-1.254-0.227h-2.046v6.713h2.046c0.46,0,0.878-0.076,1.254-0.228s0.696-0.371,0.96-0.657
				c0.265-0.285,0.469-0.637,0.612-1.053C149.498,68.966,149.569,68.494,149.569,67.966z"/>
			<path fill="#85C900" d="M157.976,68.842v3.42h-1.158v-3.42l-3.15-5.179h1.021c0.104,0,0.186,0.027,0.246,0.078
				c0.06,0.053,0.111,0.117,0.155,0.192l1.969,3.343c0.079,0.14,0.146,0.271,0.2,0.396c0.055,0.124,0.104,0.245,0.147,0.366
				c0.044-0.125,0.092-0.248,0.144-0.373c0.053-0.123,0.118-0.254,0.198-0.389l1.962-3.343c0.036-0.063,0.085-0.125,0.147-0.183
				c0.062-0.059,0.143-0.088,0.243-0.088h1.031L157.976,68.842z"/>
			<path fill="#85C900" d="M169.718,67.966c0,0.645-0.103,1.234-0.307,1.773c-0.204,0.537-0.491,1-0.863,1.389
				c-0.372,0.388-0.819,0.689-1.342,0.902c-0.521,0.215-1.099,0.321-1.73,0.321s-1.208-0.106-1.729-0.321
				c-0.52-0.213-0.966-0.515-1.338-0.902c-0.372-0.389-0.66-0.852-0.863-1.389c-0.204-0.539-0.307-1.129-0.307-1.773
				s0.103-1.234,0.307-1.773c0.203-0.537,0.491-1.002,0.863-1.392s0.818-0.692,1.338-0.909c0.521-0.216,1.097-0.324,1.729-0.324
				s1.209,0.108,1.73,0.324c0.522,0.217,0.97,0.52,1.342,0.909s0.659,0.854,0.863,1.392
				C169.615,66.732,169.718,67.322,169.718,67.966z M168.523,67.966c0-0.528-0.072-1.002-0.216-1.422
				c-0.145-0.42-0.348-0.775-0.612-1.065c-0.264-0.29-0.584-0.513-0.96-0.669s-0.796-0.234-1.26-0.234
				c-0.46,0-0.878,0.078-1.254,0.234s-0.697,0.379-0.963,0.669c-0.267,0.29-0.472,0.646-0.615,1.065
				c-0.145,0.42-0.216,0.894-0.216,1.422c0,0.527,0.071,1.001,0.216,1.419c0.144,0.418,0.349,0.772,0.615,1.062
				c0.266,0.291,0.587,0.513,0.963,0.666c0.376,0.154,0.794,0.231,1.254,0.231c0.464,0,0.884-0.077,1.26-0.231
				c0.376-0.153,0.696-0.375,0.96-0.666c0.265-0.289,0.468-0.644,0.612-1.062C168.451,68.967,168.523,68.494,168.523,67.966z"/>
			<path fill="#85C900" d="M174.649,71.338c0.356,0,0.674-0.06,0.954-0.181c0.28-0.119,0.518-0.287,0.711-0.504
				c0.194-0.216,0.342-0.474,0.444-0.773c0.102-0.301,0.153-0.631,0.153-0.99v-5.227h1.157v5.227c0,0.496-0.079,0.956-0.236,1.38
				c-0.158,0.425-0.385,0.791-0.679,1.101c-0.294,0.311-0.652,0.554-1.076,0.729c-0.425,0.177-0.9,0.265-1.429,0.265
				c-0.527,0-1.004-0.088-1.428-0.265c-0.424-0.176-0.784-0.419-1.08-0.729c-0.296-0.31-0.523-0.676-0.681-1.101
				c-0.158-0.424-0.237-0.884-0.237-1.38v-5.227h1.158v5.221c0,0.359,0.051,0.689,0.153,0.99c0.102,0.3,0.249,0.558,0.443,0.773
				c0.194,0.217,0.433,0.385,0.714,0.508C173.975,71.277,174.294,71.338,174.649,71.338z"/>
			<path fill="#85C900" d="M181.346,68.674v3.588h-1.158v-8.599h2.43c0.544,0,1.015,0.056,1.41,0.166
				c0.396,0.109,0.723,0.269,0.981,0.477c0.258,0.208,0.448,0.459,0.572,0.753s0.187,0.623,0.187,0.987
				c0,0.304-0.048,0.588-0.145,0.852c-0.096,0.264-0.234,0.502-0.417,0.711c-0.182,0.211-0.403,0.389-0.666,0.537
				c-0.262,0.148-0.559,0.26-0.891,0.336c0.144,0.084,0.272,0.207,0.384,0.366l2.508,3.414h-1.031c-0.212,0-0.368-0.082-0.469-0.246
				l-2.231-3.071c-0.068-0.097-0.143-0.166-0.222-0.207c-0.08-0.043-0.2-0.063-0.36-0.063H181.346z M181.346,67.828h1.218
				c0.34,0,0.639-0.041,0.896-0.123c0.259-0.082,0.475-0.197,0.648-0.348s0.305-0.328,0.393-0.537
				c0.089-0.207,0.133-0.438,0.133-0.689c0-0.512-0.169-0.898-0.508-1.158c-0.338-0.26-0.841-0.391-1.509-0.391h-1.271V67.828z"/>
			<path fill="#85C900" d="M197.186,72.262h-0.9c-0.104,0-0.188-0.026-0.252-0.078c-0.063-0.052-0.112-0.118-0.144-0.198
				l-0.805-2.076h-3.857l-0.804,2.076c-0.028,0.072-0.076,0.137-0.145,0.192s-0.152,0.084-0.252,0.084h-0.9l3.438-8.599h1.182
				L197.186,72.262z M191.552,69.07h3.21l-1.351-3.498c-0.088-0.215-0.174-0.485-0.258-0.81c-0.044,0.164-0.087,0.315-0.129,0.453
				s-0.083,0.259-0.123,0.362L191.552,69.07z"/>
			<path fill="#85C900" d="M204.078,70.486c0.064,0,0.122,0.026,0.175,0.078l0.456,0.498c-0.353,0.408-0.779,0.727-1.281,0.954
				s-1.107,0.343-1.815,0.343c-0.62,0-1.182-0.107-1.686-0.322c-0.504-0.213-0.935-0.514-1.29-0.899
				c-0.356-0.386-0.632-0.849-0.828-1.39c-0.196-0.539-0.294-1.133-0.294-1.781s0.104-1.242,0.315-1.782
				c0.21-0.54,0.505-1.004,0.885-1.392c0.38-0.389,0.835-0.689,1.365-0.903c0.529-0.214,1.114-0.321,1.755-0.321
				c0.632,0,1.177,0.099,1.635,0.295c0.458,0.195,0.865,0.461,1.221,0.797l-0.378,0.535c-0.028,0.039-0.06,0.072-0.096,0.098
				c-0.036,0.027-0.088,0.039-0.156,0.039c-0.052,0-0.107-0.018-0.165-0.057c-0.058-0.037-0.127-0.084-0.207-0.141
				s-0.174-0.116-0.282-0.18c-0.107-0.064-0.235-0.125-0.384-0.18c-0.147-0.057-0.32-0.104-0.516-0.142
				c-0.196-0.038-0.422-0.058-0.679-0.058c-0.46,0-0.881,0.08-1.263,0.237c-0.382,0.158-0.711,0.384-0.987,0.675
				c-0.275,0.293-0.49,0.648-0.645,1.068s-0.231,0.891-0.231,1.41c0,0.536,0.077,1.014,0.231,1.434s0.364,0.775,0.63,1.065
				s0.581,0.511,0.945,0.663c0.363,0.152,0.756,0.229,1.176,0.229c0.256,0,0.486-0.016,0.69-0.046
				c0.203-0.03,0.393-0.077,0.566-0.141s0.336-0.146,0.486-0.243c0.149-0.098,0.301-0.215,0.453-0.352
				C203.948,70.516,204.015,70.486,204.078,70.486z"/>
			<path fill="#85C900" d="M212.096,63.664v0.979h-2.778v7.62h-1.164v-7.62h-2.79v-0.979H212.096z"/>
			<path fill="#85C900" d="M214.699,72.262h-1.164v-8.599h1.164V72.262z"/>
			<path fill="#85C900" d="M216.007,63.664h0.93c0.104,0,0.188,0.027,0.253,0.078c0.063,0.053,0.111,0.119,0.144,0.199l2.43,6.065
				c0.057,0.136,0.107,0.284,0.153,0.444s0.091,0.326,0.135,0.498c0.036-0.172,0.075-0.338,0.117-0.498s0.091-0.309,0.147-0.444
				l2.418-6.065c0.027-0.068,0.075-0.132,0.144-0.189c0.068-0.059,0.152-0.088,0.252-0.088h0.937l-3.505,8.599h-1.05L216.007,63.664
				z"/>
			<path fill="#85C900" d="M226.543,72.262h-1.164v-8.599h1.164V72.262z"/>
			<path fill="#85C900" d="M234.703,63.664v0.979h-2.778v7.62h-1.164v-7.62h-2.79v-0.979H234.703z"/>
			<path fill="#85C900" d="M239.239,68.842v3.42h-1.158v-3.42l-3.15-5.179h1.021c0.104,0,0.186,0.027,0.246,0.078
				c0.06,0.053,0.111,0.117,0.155,0.192l1.969,3.343c0.079,0.14,0.146,0.271,0.2,0.396c0.055,0.124,0.104,0.245,0.147,0.366
				c0.044-0.125,0.092-0.248,0.144-0.373c0.053-0.123,0.118-0.254,0.198-0.389l1.962-3.343c0.036-0.063,0.085-0.125,0.147-0.183
				c0.062-0.059,0.143-0.088,0.243-0.088h1.031L239.239,68.842z"/>
		</g>
	</g>
</g>
<g>
	<g>
		<path fill="#85C900" d="M43,9c0,4.95-4.05,9-9,9H9c-4.95,0-9-4.05-9-9l0,0c0-4.95,4.05-9,9-9h25C38.95,0,43,4.05,43,9L43,9z"/>
	</g>
	<g>
		<path fill="#FFFFFF" d="M8.331,12.714V4.7h2.948c0.554,0,1.025,0.052,1.414,0.154s0.706,0.248,0.952,0.435
			s0.424,0.414,0.536,0.682c0.112,0.268,0.167,0.567,0.167,0.896c0,0.18-0.025,0.353-0.077,0.52s-0.132,0.324-0.242,0.47
			s-0.251,0.28-0.423,0.399s-0.379,0.223-0.622,0.311c0.528,0.128,0.918,0.336,1.171,0.624c0.253,0.288,0.379,0.657,0.379,1.108
			c0,0.341-0.066,0.658-0.198,0.952s-0.326,0.549-0.58,0.767c-0.255,0.218-0.569,0.389-0.943,0.512
			c-0.374,0.123-0.801,0.184-1.282,0.184H8.331z M10.19,8.072h0.968c0.206,0,0.391-0.015,0.556-0.044s0.305-0.081,0.421-0.154
			c0.115-0.073,0.204-0.174,0.264-0.303c0.061-0.128,0.091-0.29,0.091-0.484c0-0.19-0.024-0.349-0.071-0.476
			c-0.048-0.126-0.121-0.229-0.22-0.306c-0.099-0.077-0.225-0.132-0.376-0.165c-0.152-0.033-0.333-0.05-0.542-0.05H10.19V8.072z
			 M10.19,9.315v1.997h1.309c0.246,0,0.446-0.031,0.602-0.094c0.156-0.062,0.278-0.143,0.366-0.242
			c0.088-0.099,0.148-0.211,0.182-0.336c0.033-0.125,0.049-0.251,0.049-0.379c0-0.146-0.019-0.278-0.058-0.396
			c-0.039-0.117-0.104-0.216-0.198-0.297c-0.094-0.081-0.217-0.143-0.372-0.187c-0.154-0.044-0.348-0.066-0.583-0.066H10.19z"/>
		<path fill="#FFFFFF" d="M20.706,4.7v1.43h-3.289V8h2.519v1.375h-2.519v1.908h3.289v1.43h-5.159V4.7H20.706z"/>
		<path fill="#FFFFFF" d="M27.581,4.7v1.474h-2.255v6.54h-1.859v-6.54h-2.255V4.7H27.581z"/>
		<path fill="#FFFFFF" d="M34.929,12.714h-1.441c-0.161,0-0.294-0.038-0.398-0.113s-0.177-0.171-0.217-0.289l-0.473-1.397h-3.047
			l-0.473,1.397c-0.037,0.103-0.108,0.195-0.214,0.278s-0.236,0.124-0.391,0.124h-1.452L29.923,4.7h1.903L34.929,12.714z
			 M29.781,9.65h2.189l-0.737-2.194c-0.047-0.14-0.104-0.304-0.167-0.493C31,6.775,30.938,6.57,30.875,6.351
			c-0.059,0.224-0.119,0.431-0.182,0.621c-0.062,0.191-0.121,0.356-0.176,0.495L29.781,9.65z"/>
	</g>
</g>
</svg>
